<?xml version="1.0" encoding="UTF-8"?>
<!DOCTYPE svg PUBLIC "-//W3C//DTD SVG 1.1//EN" "http://www.w3.org/Graphics/SVG/1.1/DTD/svg11.dtd">
<svg version="1.1" xmlns="http://www.w3.org/2000/svg" xmlns:xlink="http://www.w3.org/1999/xlink" x="0" y="0" width="471.547" height="386.402" viewBox="0, 0, 471.547, 386.402">
  <defs>
    <linearGradient id="Gradient_1" gradientUnits="userSpaceOnUse" x1="848.958" y1="344.799" x2="848.958" y2="486.86">
      <stop offset="0" stop-color="#00A1FF"/>
      <stop offset="0.125" stop-color="#2B91EF"/>
      <stop offset="0.25" stop-color="#3D82E0"/>
      <stop offset="0.375" stop-color="#4B71CF"/>
      <stop offset="0.5" stop-color="#5561BF"/>
      <stop offset="0.625" stop-color="#5D51B0"/>
      <stop offset="0.75" stop-color="#643F9F"/>
      <stop offset="0.875" stop-color="#6A2F90"/>
      <stop offset="1" stop-color="#6F1B7F"/>
    </linearGradient>
  </defs>
  <g id="Layer_1" transform="translate(-719.936, -346.799)">
    <path d="M859.703,453.893 C862.265,453.893 864.473,454.384 866.328,455.365 C868.182,456.346 869.639,457.637 870.697,459.237 C871.756,460.837 872.37,462.571 872.54,464.439 L872.563,464.655 L866.694,464.655 L866.643,464.418 C866.326,462.956 865.597,461.693 864.457,460.629 C863.317,459.565 861.747,459.033 859.745,459.033 C858.174,459.033 856.8,459.454 855.623,460.295 C854.447,461.137 853.532,462.329 852.881,463.872 C852.229,465.415 851.903,467.247 851.903,469.368 L851.903,469.396 C851.903,471.566 852.232,473.42 852.89,474.957 C853.548,476.494 854.469,477.671 855.653,478.488 C856.837,479.304 858.217,479.713 859.791,479.713 C861.68,479.713 863.207,479.216 864.372,478.224 C865.538,477.231 866.302,475.932 866.666,474.328 L866.717,474.091 L872.609,474.091 L872.586,474.284 C872.37,476.278 871.701,478.072 870.579,479.666 C869.457,481.261 867.976,482.524 866.134,483.455 C864.292,484.387 862.169,484.853 859.765,484.853 C856.879,484.853 854.376,484.221 852.257,482.956 C850.137,481.692 848.502,479.899 847.352,477.578 C846.202,475.256 845.626,472.512 845.626,469.344 L845.626,469.316 C845.626,466.168 846.209,463.438 847.375,461.128 C848.541,458.817 850.179,457.034 852.289,455.777 C854.399,454.521 856.87,453.893 859.703,453.893 z M827.462,443.399 L827.462,484.266 L821.309,484.266 L821.309,479.213 L821.174,479.213 C820.595,480.386 819.846,481.39 818.927,482.225 C818.009,483.06 816.955,483.707 815.764,484.165 C814.574,484.624 813.262,484.853 811.829,484.853 C809.304,484.853 807.107,484.223 805.239,482.964 C803.371,481.705 801.926,479.916 800.903,477.598 C799.88,475.28 799.368,472.538 799.368,469.373 L799.368,469.344 C799.368,466.175 799.884,463.436 800.914,461.125 C801.945,458.815 803.39,457.032 805.251,455.776 C807.111,454.521 809.284,453.893 811.77,453.893 C813.184,453.893 814.493,454.12 815.695,454.574 C816.897,455.028 817.965,455.677 818.899,456.521 C819.833,457.365 820.591,458.37 821.174,459.537 L821.309,459.537 L821.309,443.399 L827.462,443.399 z M813.451,459.168 C811.849,459.168 810.463,459.581 809.294,460.406 C808.124,461.231 807.223,462.402 806.592,463.918 C805.961,465.434 805.645,467.243 805.645,469.344 L805.645,469.373 C805.645,471.471 805.96,473.286 806.59,474.817 C807.219,476.349 808.12,477.526 809.291,478.346 C810.462,479.167 811.849,479.578 813.451,479.578 C814.995,479.578 816.361,479.157 817.547,478.317 C818.734,477.477 819.662,476.29 820.33,474.759 C820.998,473.227 821.332,471.433 821.332,469.378 L821.332,469.35 C821.332,467.291 820.993,465.5 820.316,463.976 C819.638,462.451 818.711,461.269 817.533,460.429 C816.356,459.588 814.995,459.168 813.451,459.168 z M782.216,453.893 C785.001,453.893 787.402,454.516 789.421,455.761 C791.439,457.006 792.992,458.753 794.081,461.002 C795.17,463.251 795.714,465.868 795.714,468.855 L795.714,470.938 L774.629,470.938 C774.586,472.551 775.007,474.106 775.598,475.589 C776.252,476.958 777.182,478.006 778.388,478.734 C779.594,479.463 781.022,479.827 782.672,479.827 C783.876,479.827 784.942,479.642 785.868,479.273 C786.794,478.905 787.563,478.41 788.174,477.791 C788.784,477.172 789.214,476.488 789.463,475.738 L789.537,475.514 L795.387,475.514 L795.325,475.813 C795.083,476.987 794.624,478.116 793.947,479.199 C793.27,480.282 792.385,481.251 791.291,482.105 C790.197,482.96 788.917,483.631 787.451,484.12 C785.985,484.608 784.347,484.853 782.538,484.853 C779.621,484.853 777.11,484.225 775.006,482.968 C772.902,481.712 771.286,479.93 770.159,477.624 C769.032,475.318 768.468,472.598 768.468,469.465 L768.468,469.437 C768.468,466.332 769.035,463.612 770.168,461.278 C771.302,458.945 772.897,457.131 774.953,455.835 C777.01,454.54 779.431,453.893 782.216,453.893 z M782.25,458.919 C780.787,458.919 779.479,459.275 778.326,459.988 C777.173,460.701 776.267,461.753 775.607,463.145 C774.883,464.987 775.248,463.86 774.72,466.587 L789.631,466.587 C789.113,463.758 789.477,464.92 788.766,463.041 C788.128,461.657 787.249,460.624 786.127,459.942 C785.005,459.26 783.713,458.919 782.25,458.919 z M889.474,453.893 C891.904,453.893 894.007,454.299 895.786,455.111 C897.564,455.923 898.941,457.066 899.918,458.54 C900.895,460.013 901.384,461.746 901.384,463.737 L901.384,484.266 L895.23,484.266 L895.23,479.578 L895.096,479.578 C894.527,480.637 893.779,481.558 892.854,482.341 C891.929,483.125 890.885,483.73 889.72,484.159 C888.556,484.587 887.311,484.801 885.986,484.801 C884.014,484.801 882.28,484.424 880.785,483.67 C879.289,482.917 878.124,481.862 877.289,480.506 C876.454,479.15 876.036,477.583 876.036,475.804 L876.036,475.753 C876.036,474.01 876.472,472.51 877.344,471.251 C878.215,469.993 879.479,468.997 881.134,468.264 C882.79,467.531 884.79,467.094 887.134,466.951 L895.23,466.473 L895.23,464.234 C895.23,462.603 894.718,461.319 893.693,460.382 C892.669,459.445 891.207,458.976 889.308,458.976 C887.548,458.976 886.134,459.353 885.064,460.107 C883.995,460.86 883.333,461.836 883.077,463.033 L883.02,463.293 L877.235,463.293 L877.263,462.971 C877.417,461.254 877.995,459.711 878.997,458.343 C879.999,456.975 881.386,455.891 883.159,455.092 C884.931,454.292 887.036,453.893 889.474,453.893 z M895.23,470.789 L887.95,471.241 C886.121,471.348 884.711,471.784 883.718,472.548 C882.726,473.313 882.23,474.33 882.23,475.597 L882.23,475.649 C882.23,476.954 882.725,477.985 883.713,478.744 C884.702,479.502 886.02,479.881 887.667,479.881 C889.101,479.881 890.387,479.586 891.525,478.997 C892.663,478.408 893.565,477.601 894.231,476.575 C894.897,475.549 895.23,474.396 895.23,473.115 L895.23,470.789 z M977.977,443.399 L977.977,484.266 L971.613,484.266 L971.613,443.399 L977.977,443.399 z M951.996,443.399 L966.838,484.266 L960.151,484.266 L956.417,473.224 L940.681,473.224 L936.939,484.266 L930.252,484.266 L945.117,443.399 L951.996,443.399 z M948.624,450.181 L948.49,450.181 L942.406,468.132 L954.695,468.132 L948.624,450.181 z M913.965,443.399 L913.965,484.266 L907.812,484.266 L907.812,443.399 L913.965,443.399 z M840.387,454.48 L840.387,484.266 L834.234,484.266 L834.234,454.48 L840.387,454.48 z M728.769,443.399 L741.99,475.983 L742.165,475.983 L755.385,443.399 L762.74,443.399 L762.74,484.266 L756.933,484.266 L756.933,454.137 L756.726,454.137 L744.424,484.266 L739.73,484.266 L727.428,454.137 L727.221,454.137 L727.221,484.266 L721.414,484.266 L721.414,443.399 L728.769,443.399 z M837.311,442.829 C838.318,442.829 839.165,443.171 839.854,443.855 C840.542,444.54 840.886,445.376 840.886,446.362 C840.886,447.329 840.542,448.16 839.854,448.854 C839.165,449.549 838.318,449.896 837.311,449.896 C836.319,449.896 835.475,449.549 834.78,448.854 C834.084,448.16 833.736,447.329 833.736,446.362 C833.736,445.376 834.084,444.54 834.78,443.855 C835.475,443.171 836.319,442.829 837.311,442.829 z M738.891,394.409 C741.9,394.409 744.613,394.986 747.03,396.138 C749.448,397.29 751.438,398.887 753.001,400.929 C754.563,402.971 755.553,405.342 755.969,408.043 L756.016,408.321 L749.698,408.321 L749.531,407.75 C749.079,406.144 748.368,404.769 747.4,403.625 C746.432,402.481 745.233,401.598 743.804,400.977 C742.375,400.356 740.737,400.045 738.891,400.045 C736.37,400.045 734.178,400.678 732.316,401.943 C730.454,403.208 729.013,404.993 727.991,407.298 C726.97,409.602 726.459,412.331 726.459,415.485 L726.459,415.513 C726.459,418.654 726.97,421.388 727.991,423.713 C729.013,426.039 730.459,427.838 732.33,429.11 C734.202,430.383 736.39,431.02 738.897,431.02 C740.706,431.02 742.323,430.712 743.746,430.095 C745.169,429.479 746.381,428.576 747.381,427.386 C748.381,426.196 749.132,424.737 749.634,423.009 L749.709,422.744 L756.026,422.744 L755.98,423.032 C755.564,425.745 754.575,428.126 753.015,430.173 C751.455,432.221 749.465,433.813 747.046,434.95 C744.626,436.087 741.908,436.655 738.891,436.655 C735.043,436.655 731.696,435.794 728.85,434.071 C726.005,432.348 723.808,429.906 722.26,426.745 C720.712,423.584 719.937,419.842 719.937,415.518 L719.937,415.49 C719.937,411.166 720.712,407.429 722.263,404.277 C723.813,401.126 726.006,398.694 728.844,396.98 C731.681,395.266 735.031,394.409 738.891,394.409 z M918.734,395.099 L918.734,435.965 L912.58,435.965 L912.58,430.913 L912.446,430.913 C911.866,432.086 911.117,433.09 910.199,433.925 C909.281,434.76 908.226,435.407 907.036,435.865 C905.846,436.324 904.534,436.553 903.1,436.553 C900.575,436.553 898.379,435.923 896.511,434.664 C894.643,433.405 893.197,431.616 892.174,429.298 C891.151,426.98 890.64,424.238 890.64,421.073 L890.64,421.044 C890.64,417.875 891.155,415.136 892.186,412.825 C893.216,410.515 894.662,408.732 896.522,407.476 C898.383,406.221 900.556,405.593 903.041,405.593 C904.456,405.593 905.764,405.82 906.967,406.274 C908.169,406.728 909.237,407.377 910.171,408.221 C911.104,409.065 911.863,410.07 912.446,411.238 L912.58,411.238 L912.58,395.099 L918.734,395.099 z M904.723,410.868 C903.121,410.868 901.735,411.281 900.565,412.106 C899.396,412.931 898.495,414.102 897.864,415.618 C897.232,417.134 896.917,418.943 896.917,421.044 L896.917,421.073 C896.917,423.171 897.232,424.986 897.861,426.517 C898.491,428.049 899.391,429.226 900.563,430.046 C901.734,430.867 903.121,431.278 904.723,431.278 C906.267,431.278 907.632,430.857 908.819,430.017 C910.006,429.177 910.933,427.99 911.602,426.459 C912.27,424.927 912.604,423.133 912.604,421.078 L912.604,421.05 C912.604,418.991 912.265,417.2 911.587,415.676 C910.91,414.151 909.982,412.969 908.805,412.129 C907.627,411.288 906.267,410.868 904.723,410.868 z M873.487,405.593 C876.272,405.593 878.674,406.216 880.692,407.461 C882.711,408.706 884.264,410.453 885.353,412.702 C886.441,414.951 886.985,417.568 886.985,420.555 L886.985,422.638 L865.901,422.638 C865.857,424.251 866.279,425.806 866.869,427.289 C867.523,428.658 868.454,429.706 869.659,430.434 C870.865,431.163 872.293,431.527 873.943,431.527 C875.148,431.527 876.213,431.342 877.14,430.973 C878.066,430.605 878.834,430.11 879.445,429.491 C880.056,428.872 880.485,428.188 880.734,427.438 L880.808,427.215 L886.659,427.215 L886.597,427.513 C886.355,428.687 885.896,429.816 885.218,430.899 C884.541,431.982 883.656,432.951 882.563,433.805 C881.469,434.66 880.189,435.331 878.723,435.82 C877.256,436.308 875.618,436.553 873.809,436.553 C870.892,436.553 868.382,435.925 866.278,434.668 C864.174,433.412 862.558,431.63 861.431,429.324 C860.304,427.018 859.74,424.298 859.74,421.166 L859.74,421.137 C859.74,418.032 860.307,415.312 861.44,412.979 C862.573,410.645 864.168,408.831 866.225,407.536 C868.282,406.24 870.702,405.593 873.487,405.593 z M873.521,410.619 C872.058,410.619 870.75,410.975 869.598,411.688 C868.445,412.401 867.539,413.453 866.878,414.845 C866.154,416.687 866.52,415.56 865.992,418.287 L880.902,418.287 C880.384,415.458 880.748,416.62 880.037,414.741 C879.4,413.357 878.521,412.324 877.399,411.642 C876.277,410.96 874.985,410.619 873.521,410.619 z M832.115,398.425 L832.115,406.18 L837.702,406.18 L837.702,411.048 L832.115,411.048 L832.115,427.752 C832.115,429.264 832.446,430.297 833.106,430.852 C833.767,431.408 834.746,431.685 836.043,431.685 C836.37,431.685 836.672,431.671 836.949,431.643 C837.226,431.614 837.477,431.589 837.702,431.567 L837.702,436.313 C837.341,436.365 836.885,436.417 836.335,436.472 C835.784,436.526 835.196,436.553 834.57,436.553 C831.624,436.553 829.43,435.887 827.987,434.557 C826.545,433.226 825.823,431.075 825.823,428.102 L825.823,411.048 L821.55,411.048 L821.55,406.18 L825.823,406.18 L825.823,398.425 L832.115,398.425 z M773.721,405.593 C776.506,405.593 778.908,406.216 780.926,407.461 C782.945,408.706 784.498,410.453 785.587,412.702 C786.675,414.951 787.22,417.568 787.22,420.555 L787.22,422.638 L766.135,422.638 C766.091,424.251 766.513,425.806 767.103,427.289 C767.758,428.658 768.688,429.706 769.894,430.434 C771.099,431.163 772.527,431.527 774.178,431.527 C775.382,431.527 776.448,431.342 777.374,430.973 C778.3,430.605 779.069,430.11 779.679,429.491 C780.29,428.872 780.72,428.188 780.968,427.438 L781.043,427.215 L786.893,427.215 L786.831,427.513 C786.589,428.687 786.13,429.816 785.453,430.899 C784.776,431.982 783.89,432.951 782.797,433.805 C781.703,434.66 780.423,435.331 778.957,435.82 C777.49,436.308 775.853,436.553 774.044,436.553 C771.127,436.553 768.616,435.925 766.512,434.668 C764.408,433.412 762.792,431.63 761.665,429.324 C760.538,427.018 759.974,424.298 759.974,421.166 L759.974,421.137 C759.974,418.032 760.541,415.312 761.674,412.979 C762.807,410.645 764.402,408.831 766.459,407.536 C768.516,406.24 770.937,405.593 773.721,405.593 z M773.756,410.619 C772.292,410.619 770.984,410.975 769.832,411.688 C768.679,412.401 767.773,413.453 767.112,414.845 C766.388,416.687 766.754,415.56 766.226,418.287 L781.136,418.287 C780.619,415.458 780.982,416.62 780.271,414.741 C779.634,413.357 778.755,412.324 777.633,411.642 C776.511,410.96 775.219,410.619 773.756,410.619 z M856.144,405.593 C856.589,405.593 856.997,405.619 857.369,405.671 C857.741,405.724 858.044,405.779 858.277,405.838 L858.277,411.538 C858.033,411.438 857.662,411.355 857.163,411.288 C856.664,411.221 856.113,411.187 855.509,411.187 C854.209,411.187 853.08,411.463 852.121,412.016 C851.163,412.568 850.426,413.369 849.912,414.419 C849.398,415.468 849.141,416.735 849.141,418.22 L849.141,435.965 L842.988,435.965 L842.988,406.18 L849.141,406.18 L849.141,411.279 L849.275,411.279 C849.749,409.517 850.587,408.129 851.79,407.115 C852.994,406.1 854.445,405.593 856.144,405.593 z M807.622,405.593 C810.888,405.593 813.42,406.581 815.218,408.558 C817.017,410.535 817.916,413.24 817.916,416.673 L817.916,435.965 L811.763,435.965 L811.763,417.857 C811.763,415.612 811.236,413.886 810.184,412.679 C809.131,411.472 807.547,410.868 805.43,410.868 C803.999,410.868 802.753,411.189 801.692,411.831 C800.63,412.474 799.808,413.373 799.226,414.529 C798.644,415.685 798.352,417.04 798.352,418.592 L798.352,435.965 L792.199,435.965 L792.199,406.18 L798.352,406.18 L798.352,410.667 L798.486,410.667 C799.276,409.154 800.433,407.93 801.957,406.995 C803.481,406.06 805.37,405.593 807.622,405.593 z M768.164,357.88 L768.164,375.989 C768.164,378.234 768.69,379.96 769.742,381.167 C770.795,382.374 772.379,382.978 774.496,382.978 C775.577,382.978 776.549,382.793 777.412,382.424 C778.276,382.055 779.021,381.533 779.647,380.856 C780.273,380.179 780.751,379.365 781.08,378.412 C781.409,377.459 781.574,376.406 781.574,375.254 L781.574,357.88 L787.727,357.88 L787.727,387.666 L781.574,387.666 L781.574,383.178 L781.44,383.178 C780.915,384.174 780.229,385.055 779.382,385.819 C778.534,386.583 777.52,387.18 776.339,387.609 C775.158,388.038 773.813,388.253 772.305,388.253 C770.128,388.253 768.272,387.805 766.737,386.909 C765.201,386.013 764.03,384.735 763.222,383.076 C762.415,381.417 762.011,379.449 762.011,377.173 L762.011,357.88 L768.164,357.88 z M854.437,357.293 C856.867,357.293 858.971,357.699 860.749,358.511 C862.527,359.323 863.905,360.466 864.882,361.94 C865.859,363.413 866.347,365.146 866.347,367.137 L866.347,387.666 L860.194,387.666 L860.194,382.978 L860.06,382.978 C859.49,384.037 858.743,384.958 857.818,385.741 C856.893,386.525 855.848,387.13 854.684,387.559 C853.519,387.987 852.274,388.201 850.95,388.201 C848.977,388.201 847.243,387.824 845.748,387.07 C844.253,386.317 843.088,385.262 842.253,383.906 C841.417,382.55 841,380.983 841,379.204 L841,379.153 C841,377.41 841.436,375.91 842.307,374.651 C843.178,373.393 844.442,372.397 846.098,371.664 C847.754,370.931 849.754,370.494 852.097,370.351 L860.194,369.872 L860.194,367.634 C860.194,366.003 859.682,364.719 858.657,363.782 C857.632,362.845 856.17,362.376 854.272,362.376 C852.512,362.376 851.097,362.753 850.028,363.507 C848.958,364.26 848.296,365.236 848.041,366.433 L847.984,366.693 L842.198,366.693 L842.226,366.371 C842.381,364.654 842.959,363.111 843.961,361.743 C844.963,360.375 846.35,359.291 848.122,358.492 C849.894,357.692 851.999,357.293 854.437,357.293 z M860.194,374.188 L852.913,374.641 C851.084,374.748 849.674,375.184 848.682,375.948 C847.69,376.713 847.194,377.73 847.194,378.997 L847.194,379.049 C847.194,380.354 847.688,381.385 848.677,382.143 C849.666,382.902 850.983,383.281 852.63,383.281 C854.064,383.281 855.35,382.986 856.488,382.397 C857.626,381.808 858.528,381.001 859.195,379.975 C859.861,378.949 860.194,377.796 860.194,376.515 L860.194,374.188 z M887.964,357.293 C891.23,357.293 893.763,358.281 895.561,360.258 C897.359,362.235 898.258,364.94 898.258,368.373 L898.258,387.666 L892.105,387.666 L892.105,369.557 C892.105,367.312 891.578,365.586 890.526,364.378 C889.474,363.172 887.889,362.568 885.772,362.568 C884.341,362.568 883.095,362.889 882.034,363.532 C880.972,364.174 880.15,365.073 879.568,366.229 C878.986,367.385 878.695,368.74 878.695,370.292 L878.695,387.666 L872.541,387.666 L872.541,357.88 L878.695,357.88 L878.695,362.368 L878.829,362.368 C879.618,360.854 880.775,359.63 882.299,358.695 C883.823,357.76 885.712,357.293 887.964,357.293 z M826.286,357.293 C828.248,357.293 829.955,357.704 831.409,358.525 C832.863,359.347 833.994,360.495 834.8,361.97 C835.607,363.446 836.011,365.181 836.011,367.176 L836.011,387.666 L829.858,387.666 L829.858,368.656 C829.858,367.363 829.635,366.263 829.19,365.357 C828.745,364.452 828.101,363.76 827.259,363.283 C826.417,362.806 825.386,362.568 824.166,362.568 C822.961,362.568 821.897,362.844 820.976,363.395 C820.055,363.947 819.337,364.71 818.82,365.685 C818.304,366.66 818.046,367.78 818.046,369.045 L818.046,387.666 L812.002,387.666 L812.002,368.222 C812.002,367.067 811.771,366.067 811.311,365.221 C810.85,364.375 810.203,363.722 809.368,363.26 C808.534,362.799 807.539,362.568 806.385,362.568 C805.179,362.568 804.112,362.859 803.183,363.441 C802.254,364.024 801.523,364.815 800.99,365.815 C800.457,366.815 800.19,367.961 800.19,369.252 L800.19,387.666 L794.037,387.666 L794.037,357.88 L800.19,357.88 L800.19,362.481 L800.324,362.481 C800.967,360.923 802.014,359.669 803.462,358.719 C804.911,357.768 806.606,357.293 808.546,357.293 C809.918,357.293 811.155,357.523 812.258,357.984 C813.361,358.445 814.306,359.112 815.094,359.985 C815.882,360.858 816.467,361.923 816.852,363.18 L816.986,363.18 C817.499,361.956 818.212,360.907 819.126,360.032 C820.04,359.157 821.108,358.482 822.329,358.006 C823.551,357.531 824.869,357.293 826.286,357.293 z M727.779,346.799 L727.779,364.082 L748.734,364.082 L748.734,346.799 L755.098,346.799 L755.098,387.666 L748.734,387.666 L748.734,369.573 L727.779,369.573 L727.779,387.666 L721.414,387.666 L721.414,346.799 L727.779,346.799 z" fill="url(#Gradient_1)"/>
    <path d="M721.389,541.38 L736.823,541.38 Q743.159,541.38 747.645,538.866 Q752.13,536.352 754.517,531.587 Q756.904,526.822 756.904,520.135 L756.904,520.076 Q756.904,513.389 754.507,508.71 Q752.11,504.031 747.625,501.568 Q743.139,499.105 736.823,499.105 L721.389,499.105 z M728.926,535.011 L728.926,505.474 L736.026,505.474 Q740.246,505.474 743.191,507.16 Q746.136,508.845 747.674,512.118 Q749.213,515.39 749.213,520.117 L749.213,520.175 Q749.213,524.993 747.693,528.297 Q746.173,531.601 743.233,533.306 Q740.293,535.011 736.026,535.011 z" fill="#A9A9A9"/>
    <path d="M776.357,542.003 Q779.395,542.003 781.77,541.194 Q784.146,540.385 785.862,539.001 Q787.578,537.616 788.615,535.906 Q789.651,534.196 790.023,532.414 L790.091,532.093 L783.282,532.093 L783.212,532.301 Q782.866,533.35 781.975,534.264 Q781.084,535.178 779.709,535.741 Q778.334,536.304 776.511,536.304 Q774.092,536.304 772.33,535.237 Q770.568,534.169 769.613,532.162 Q768.658,530.155 768.658,527.332 L768.658,524.506 Q768.658,521.562 769.619,519.525 Q770.579,517.488 772.262,516.441 Q773.945,515.394 776.099,515.394 Q778.252,515.394 779.895,516.401 Q781.538,517.408 782.468,519.435 Q783.398,521.462 783.398,524.506 L783.398,527.313 L786.914,522.768 L765.022,522.768 L765.022,527.643 L790.398,527.643 L790.398,525.286 Q790.398,520.604 788.652,517.091 Q786.906,513.579 783.681,511.637 Q780.455,509.695 776.017,509.695 Q771.578,509.695 768.302,511.706 Q765.027,513.717 763.225,517.362 Q761.424,521.006 761.424,525.899 L761.424,525.929 Q761.424,530.853 763.22,534.466 Q765.016,538.08 768.365,540.042 Q771.714,542.003 776.357,542.003 z" fill="#A9A9A9"/>
    <path d="M807.737,542.003 Q811.544,542.003 814.489,540.776 Q817.434,539.549 819.107,537.346 Q820.78,535.142 820.78,532.216 L820.78,532.187 Q820.78,528.805 818.728,526.796 Q816.677,524.788 811.853,523.721 L806.695,522.577 Q805.09,522.204 804.109,521.681 Q803.129,521.159 802.696,520.454 Q802.264,519.749 802.264,518.872 L802.264,518.843 Q802.264,517.699 802.898,516.855 Q803.532,516.011 804.713,515.548 Q805.894,515.084 807.499,515.084 Q810.053,515.084 811.522,516.292 Q812.992,517.501 813.229,519.384 L813.259,519.607 L820.033,519.607 L820.013,519.282 Q819.893,516.604 818.384,514.433 Q816.875,512.263 814.121,510.979 Q811.367,509.695 807.499,509.695 Q803.772,509.695 800.964,510.884 Q798.156,512.073 796.61,514.21 Q795.064,516.347 795.064,519.216 L795.064,519.245 Q795.064,521.536 796.057,523.278 Q797.05,525.021 799.037,526.204 Q801.024,527.388 803.998,528.054 L809.156,529.198 Q811.569,529.759 812.509,530.611 Q813.449,531.464 813.449,532.863 L813.449,532.892 Q813.449,534.038 812.765,534.877 Q812.081,535.716 810.816,536.165 Q809.55,536.614 807.758,536.614 Q804.995,536.614 803.457,535.492 Q801.919,534.371 801.487,532.364 L801.429,532.09 L794.271,532.09 L794.301,532.354 Q794.642,535.236 796.276,537.407 Q797.91,539.579 800.795,540.791 Q803.681,542.003 807.737,542.003 z" fill="#A9A9A9"/>
    <path d="M826.094,541.38 L833.381,541.38 L833.381,510.318 L826.094,510.318 z M829.738,505.875 Q831.456,505.875 832.63,504.697 Q833.803,503.518 833.803,501.885 Q833.803,500.222 832.63,499.058 Q831.456,497.893 829.738,497.893 Q828.039,497.893 826.856,499.058 Q825.672,500.222 825.672,501.885 Q825.672,503.518 826.856,504.697 Q828.039,505.875 829.738,505.875 z" fill="#A9A9A9"/>
    <path d="M854.108,552.257 Q858.609,552.257 861.896,550.784 Q865.183,549.31 866.967,546.67 Q868.752,544.029 868.752,540.512 L868.752,510.318 L861.464,510.318 L861.464,515.613 L861.301,515.613 Q860.419,513.821 859.016,512.495 Q857.614,511.169 855.779,510.432 Q853.944,509.695 851.739,509.695 Q847.807,509.695 844.91,511.614 Q842.013,513.534 840.413,517.077 Q838.814,520.62 838.814,525.542 L838.814,525.571 Q838.814,530.391 840.384,533.898 Q841.954,537.405 844.837,539.307 Q847.72,541.209 851.613,541.209 Q853.856,541.209 855.735,540.539 Q857.614,539.869 859.036,538.662 Q860.458,537.455 861.31,535.783 L861.464,535.783 L861.464,540.264 Q861.464,543.225 859.564,544.984 Q857.664,546.743 854.095,546.743 Q851.259,546.743 849.433,545.842 Q847.607,544.941 847.014,543.607 L846.916,543.38 L839.757,543.38 L839.806,543.644 Q840.249,546.067 842.074,548.023 Q843.899,549.979 846.952,551.118 Q850.005,552.257 854.108,552.257 z M853.895,535.584 Q851.562,535.584 849.829,534.384 Q848.097,533.184 847.167,530.967 Q846.236,528.75 846.236,525.692 L846.236,525.662 Q846.236,522.625 847.171,520.427 Q848.106,518.23 849.834,517.034 Q851.562,515.839 853.895,515.839 Q856.158,515.839 857.866,517.044 Q859.573,518.25 860.528,520.452 Q861.483,522.655 861.483,525.671 L861.483,525.701 Q861.483,528.708 860.533,530.931 Q859.583,533.154 857.88,534.369 Q856.178,535.584 853.895,535.584 z" fill="#A9A9A9"/>
    <path d="M875.243,541.38 L882.53,541.38 L882.53,523.376 Q882.53,521.112 883.377,519.42 Q884.223,517.727 885.77,516.783 Q887.316,515.839 889.403,515.839 Q892.519,515.839 894.072,517.636 Q895.625,519.432 895.625,522.745 L895.625,541.38 L902.912,541.38 L902.912,521.289 Q902.912,515.879 900.107,512.787 Q897.301,509.695 892.189,509.695 Q888.667,509.695 886.286,511.188 Q883.905,512.682 882.684,515.182 L882.53,515.182 L882.53,510.318 L875.243,510.318 z" fill="#A9A9A9"/>
    <path d="M924.475,541.38 L938.417,541.38 Q942.938,541.38 946.178,539.927 Q949.418,538.473 951.173,535.794 Q952.929,533.115 952.929,529.413 L952.929,529.354 Q952.929,526.56 951.674,524.349 Q950.418,522.137 948.161,520.758 Q945.903,519.38 942.921,519.121 L942.921,518.967 Q945.202,518.644 947.009,517.319 Q948.817,515.994 949.859,514.011 Q950.902,512.028 950.902,509.747 L950.902,509.689 Q950.902,506.469 949.341,504.091 Q947.781,501.714 944.94,500.409 Q942.099,499.105 938.234,499.105 L924.475,499.105 L924.475,504.978 L936.347,504.978 Q939.721,504.978 941.578,506.462 Q943.436,507.945 943.436,510.691 L943.436,510.749 Q943.436,513.741 941.29,515.358 Q939.144,516.975 935.059,516.975 L924.475,516.975 L924.475,522.443 L936.266,522.443 Q939.217,522.443 941.209,523.171 Q943.202,523.899 944.21,525.344 Q945.218,526.79 945.218,528.927 L945.218,528.985 Q945.218,532.173 943.03,533.84 Q940.841,535.507 936.689,535.507 L924.475,535.507 z M920.706,541.38 L928.243,541.38 L928.243,499.105 L920.706,499.105 z" fill="#686868"/>
    <path d="M971.823,542.003 Q976.385,542.003 979.753,540.06 Q983.121,538.118 984.982,534.503 Q986.842,530.889 986.842,525.858 L986.842,525.8 Q986.842,520.788 984.968,517.183 Q983.093,513.579 979.715,511.637 Q976.337,509.695 971.803,509.695 Q967.298,509.695 963.92,511.641 Q960.542,513.588 958.667,517.197 Q956.793,520.806 956.793,525.8 L956.793,525.858 Q956.793,530.859 958.649,534.484 Q960.505,538.108 963.883,540.055 Q967.261,542.003 971.823,542.003 z M971.852,536.1 Q969.528,536.1 967.813,534.897 Q966.099,533.694 965.157,531.401 Q964.216,529.107 964.216,525.858 L964.216,525.8 Q964.216,522.559 965.162,520.286 Q966.108,518.013 967.823,516.806 Q969.537,515.598 971.803,515.598 Q974.109,515.598 975.823,516.796 Q977.538,517.993 978.479,520.276 Q979.42,522.559 979.42,525.8 L979.42,525.858 Q979.42,529.107 978.488,531.401 Q977.556,533.694 975.862,534.897 Q974.167,536.1 971.852,536.1 z" fill="#686868"/>
    <path d="M1005.84,542.003 Q1010.402,542.003 1013.77,540.06 Q1017.138,538.118 1018.999,534.503 Q1020.859,530.889 1020.859,525.858 L1020.859,525.8 Q1020.859,520.788 1018.985,517.183 Q1017.11,513.579 1013.732,511.637 Q1010.354,509.695 1005.82,509.695 Q1001.315,509.695 997.937,511.641 Q994.559,513.588 992.684,517.197 Q990.81,520.806 990.81,525.8 L990.81,525.858 Q990.81,530.859 992.666,534.484 Q994.522,538.108 997.9,540.055 Q1001.278,542.003 1005.84,542.003 z M1005.87,536.1 Q1003.545,536.1 1001.83,534.897 Q1000.116,533.694 999.174,531.401 Q998.233,529.107 998.233,525.858 L998.233,525.8 Q998.233,522.559 999.179,520.286 Q1000.125,518.013 1001.84,516.806 Q1003.554,515.598 1005.82,515.598 Q1008.126,515.598 1009.84,516.796 Q1011.555,517.993 1012.496,520.276 Q1013.437,522.559 1013.437,525.8 L1013.437,525.858 Q1013.437,529.107 1012.505,531.401 Q1011.573,533.694 1009.879,534.897 Q1008.184,536.1 1005.87,536.1 z" fill="#686868"/>
    <path d="M1037.643,542.003 Q1038.766,542.003 1039.699,541.911 Q1040.631,541.82 1041.258,541.724 L1041.258,536.248 Q1040.889,536.286 1040.455,536.33 Q1040.021,536.374 1039.487,536.374 Q1037.502,536.374 1036.498,535.515 Q1035.494,534.655 1035.494,532.372 L1035.494,515.946 L1041.258,515.946 L1041.258,510.318 L1035.494,510.318 L1035.494,502.447 L1028.087,502.447 L1028.087,510.318 L1023.689,510.318 L1023.689,515.946 L1028.087,515.946 L1028.087,532.976 Q1028.087,537.768 1030.441,539.886 Q1032.794,542.003 1037.643,542.003 z" fill="#686868"/>
    <path d="M1059.322,542.003 Q1063.251,542.003 1066.217,540.497 Q1069.182,538.991 1070.942,536.411 Q1072.702,533.832 1072.983,530.597 L1073.002,530.401 L1066.119,530.401 L1066.069,530.655 Q1065.564,533.101 1063.857,534.601 Q1062.15,536.1 1059.368,536.1 Q1057.065,536.1 1055.35,534.891 Q1053.636,533.683 1052.693,531.395 Q1051.751,529.107 1051.751,525.869 L1051.751,525.839 Q1051.751,522.67 1052.688,520.377 Q1053.625,518.084 1055.33,516.841 Q1057.034,515.598 1059.328,515.598 Q1062.242,515.598 1063.923,517.192 Q1065.604,518.786 1066.049,521.043 L1066.099,521.296 L1072.962,521.296 L1072.942,521.08 Q1072.722,517.972 1071.025,515.387 Q1069.328,512.802 1066.339,511.248 Q1063.349,509.695 1059.253,509.695 Q1054.728,509.695 1051.374,511.656 Q1048.02,513.618 1046.174,517.232 Q1044.328,520.847 1044.328,525.79 L1044.328,525.819 Q1044.328,530.792 1046.154,534.426 Q1047.98,538.06 1051.349,540.032 Q1054.718,542.003 1059.322,542.003 z" fill="#686868"/>
    <path d="M1087.328,541.91 Q1089.389,541.91 1091.178,541.264 Q1092.967,540.617 1094.381,539.423 Q1095.795,538.229 1096.683,536.605 L1096.838,536.605 L1096.838,541.38 L1104.124,541.38 L1104.124,520.019 Q1104.124,516.898 1102.55,514.578 Q1100.975,512.258 1098.116,510.976 Q1095.258,509.695 1091.367,509.695 Q1087.431,509.695 1084.577,510.952 Q1081.724,512.21 1080.115,514.386 Q1078.505,516.562 1078.261,519.332 L1078.232,519.672 L1084.991,519.672 L1085.05,519.4 Q1085.415,517.683 1086.971,516.589 Q1088.527,515.496 1091.113,515.496 Q1093.88,515.496 1095.359,516.847 Q1096.838,518.198 1096.838,520.544 L1096.838,529.873 Q1096.838,531.708 1095.872,533.178 Q1094.906,534.649 1093.252,535.492 Q1091.597,536.336 1089.501,536.336 Q1087.09,536.336 1085.644,535.242 Q1084.197,534.148 1084.197,532.247 L1084.197,532.198 Q1084.197,530.356 1085.631,529.243 Q1087.065,528.131 1089.75,527.974 L1100.611,527.282 L1100.611,522.464 L1088.719,523.184 Q1084.973,523.416 1082.335,524.571 Q1079.697,525.726 1078.31,527.714 Q1076.923,529.702 1076.923,532.476 L1076.923,532.526 Q1076.923,535.289 1078.234,537.411 Q1079.546,539.533 1081.891,540.721 Q1084.237,541.91 1087.328,541.91 z" fill="#686868"/>
    <path d="M1110.493,541.38 L1117.78,541.38 L1117.78,522.371 Q1117.78,520.464 1118.549,518.999 Q1119.318,517.533 1120.668,516.686 Q1122.017,515.839 1123.779,515.839 Q1125.488,515.839 1126.713,516.522 Q1127.937,517.205 1128.607,518.47 Q1129.277,519.736 1129.277,521.489 L1129.277,541.38 L1136.369,541.38 L1136.369,522.191 Q1136.369,520.315 1137.113,518.884 Q1137.858,517.453 1139.197,516.646 Q1140.536,515.839 1142.298,515.839 Q1144.097,515.839 1145.332,516.542 Q1146.567,517.245 1147.216,518.586 Q1147.866,519.927 1147.866,521.86 L1147.866,541.38 L1155.153,541.38 L1155.153,520.067 Q1155.153,516.936 1153.885,514.612 Q1152.618,512.287 1150.34,510.991 Q1148.062,509.695 1144.998,509.695 Q1142.758,509.695 1140.837,510.458 Q1138.916,511.221 1137.5,512.618 Q1136.084,514.014 1135.327,515.953 L1135.173,515.953 Q1134.612,513.948 1133.395,512.556 Q1132.179,511.164 1130.448,510.43 Q1128.717,509.695 1126.553,509.695 Q1123.484,509.695 1121.199,511.23 Q1118.914,512.765 1117.934,515.299 L1117.78,515.299 L1117.78,510.318 L1110.493,510.318 z" fill="#686868"/>
    <path d="M1161.544,551.634 L1168.831,551.634 L1168.831,536.124 L1168.985,536.124 Q1169.887,537.947 1171.314,539.264 Q1172.741,540.58 1174.63,541.292 Q1176.519,542.003 1178.723,542.003 Q1182.626,542.003 1185.484,540.046 Q1188.342,538.088 1189.912,534.474 Q1191.482,530.859 1191.482,525.869 L1191.482,525.839 Q1191.482,520.84 1189.913,517.216 Q1188.343,513.591 1185.456,511.643 Q1182.569,509.695 1178.616,509.695 Q1176.411,509.695 1174.557,510.421 Q1172.702,511.147 1171.299,512.482 Q1169.897,513.817 1168.995,515.687 L1168.831,515.687 L1168.831,510.318 L1161.544,510.318 z M1176.461,535.859 Q1174.198,535.859 1172.48,534.628 Q1170.763,533.398 1169.778,531.157 Q1168.793,528.915 1168.793,525.878 L1168.793,525.849 Q1168.793,522.783 1169.768,520.541 Q1170.742,518.299 1172.475,517.069 Q1174.207,515.839 1176.461,515.839 Q1178.794,515.839 1180.502,517.039 Q1182.21,518.239 1183.135,520.481 Q1184.06,522.723 1184.06,525.839 L1184.06,525.869 Q1184.06,528.936 1183.139,531.178 Q1182.219,533.42 1180.511,534.639 Q1178.804,535.859 1176.461,535.859 z" fill="#686868"/>
    <path d="M721.811,600.99 L736.389,600.99 L736.389,597.099 L726.529,597.099 L726.529,578.443 L721.811,578.443 z" fill="#693091"/>
    <path d="M746.592,601.334 Q748.381,601.334 749.721,600.865 Q751.061,600.396 751.99,599.615 Q752.92,598.834 753.463,597.9 Q754.006,596.966 754.201,596.044 L754.24,595.865 L750.053,595.865 L750.022,595.959 Q749.865,596.435 749.432,596.888 Q748.998,597.341 748.311,597.634 Q747.623,597.927 746.686,597.927 Q745.498,597.927 744.639,597.404 Q743.779,596.88 743.315,595.896 Q742.85,594.912 742.85,593.529 L742.85,591.755 Q742.85,590.326 743.315,589.33 Q743.779,588.334 744.6,587.818 Q745.42,587.302 746.483,587.302 Q747.545,587.302 748.35,587.802 Q749.154,588.302 749.608,589.294 Q750.061,590.287 750.061,591.755 L750.061,593.513 L752.225,590.826 L740.592,590.826 L740.592,593.701 L754.381,593.701 L754.381,592.294 Q754.381,589.763 753.408,587.873 Q752.436,585.982 750.647,584.939 Q748.858,583.896 746.404,583.896 Q743.951,583.896 742.143,584.97 Q740.334,586.044 739.342,588.005 Q738.35,589.966 738.35,592.63 L738.35,592.646 Q738.35,595.318 739.342,597.271 Q740.334,599.224 742.182,600.279 Q744.029,601.334 746.592,601.334 z" fill="#693091"/>
    <path d="M763.787,601.334 Q764.498,601.334 765.053,601.279 Q765.608,601.224 765.99,601.162 L765.99,597.826 Q765.779,597.849 765.545,597.873 Q765.311,597.896 765.006,597.896 Q763.967,597.896 763.447,597.439 Q762.928,596.982 762.928,595.81 L762.928,587.677 L765.99,587.677 L765.99,584.24 L762.928,584.24 L762.928,580.154 L758.318,580.154 L758.318,584.24 L755.99,584.24 L755.99,587.677 L758.318,587.677 L758.318,596.31 Q758.318,598.998 759.658,600.166 Q760.998,601.334 763.787,601.334 z" fill="#693091"/>
    <path d="M770.139,587.24 L773.342,587.24 L773.772,578.443 L769.709,578.443 z" fill="#693091"/>
    <path d="M784.834,601.334 Q786.99,601.334 788.643,600.658 Q790.295,599.982 791.229,598.759 Q792.162,597.537 792.162,595.896 L792.162,595.88 Q792.162,594.037 791.014,592.947 Q789.865,591.857 787.233,591.302 L784.381,590.701 Q783.545,590.513 783.045,590.263 Q782.545,590.013 782.33,589.677 Q782.115,589.341 782.115,588.919 L782.115,588.904 Q782.115,588.357 782.428,587.959 Q782.74,587.56 783.318,587.341 Q783.897,587.123 784.678,587.123 Q785.951,587.123 786.678,587.724 Q787.404,588.326 787.514,589.224 L787.529,589.349 L791.733,589.349 L791.725,589.193 Q791.678,587.724 790.846,586.525 Q790.014,585.326 788.459,584.611 Q786.904,583.896 784.678,583.896 Q782.553,583.896 780.971,584.544 Q779.389,585.193 778.526,586.369 Q777.662,587.544 777.662,589.146 L777.662,589.162 Q777.662,590.412 778.209,591.373 Q778.756,592.334 779.846,592.982 Q780.936,593.63 782.553,593.974 L785.404,594.576 Q786.631,594.849 787.115,595.259 Q787.6,595.669 787.6,596.341 L787.6,596.357 Q787.6,596.896 787.268,597.291 Q786.936,597.685 786.322,597.896 Q785.709,598.107 784.842,598.107 Q783.475,598.107 782.713,597.556 Q781.951,597.005 781.733,596.021 L781.701,595.88 L777.248,595.88 L777.264,596.021 Q777.451,597.607 778.361,598.802 Q779.272,599.998 780.897,600.666 Q782.522,601.334 784.834,601.334 z" fill="#693091"/>
    <path d="M811.483,601.334 Q813.592,601.334 815.123,600.287 Q816.654,599.24 817.479,597.287 Q818.303,595.334 818.303,592.615 L818.303,592.599 Q818.303,589.873 817.475,587.923 Q816.647,585.974 815.123,584.935 Q813.6,583.896 811.49,583.896 Q810.303,583.896 809.299,584.287 Q808.295,584.677 807.541,585.408 Q806.787,586.138 806.326,587.154 L806.233,587.154 L806.233,578.443 L801.67,578.443 L801.67,600.99 L806.233,600.99 L806.233,598.138 L806.326,598.138 Q806.779,599.138 807.526,599.849 Q808.272,600.56 809.276,600.947 Q810.279,601.334 811.483,601.334 z M809.959,597.552 Q808.85,597.552 808.01,596.951 Q807.17,596.349 806.697,595.24 Q806.225,594.13 806.225,592.623 L806.225,592.607 Q806.225,591.091 806.701,589.986 Q807.178,588.88 808.018,588.279 Q808.858,587.677 809.959,587.677 Q811.092,587.677 811.924,588.271 Q812.756,588.865 813.209,589.966 Q813.662,591.068 813.662,592.599 L813.662,592.615 Q813.662,594.138 813.213,595.248 Q812.764,596.357 811.932,596.955 Q811.1,597.552 809.959,597.552 z" fill="#693091"/>
    <path d="M826.756,601.334 Q828.029,601.334 829.022,600.959 Q830.014,600.584 830.725,599.884 Q831.436,599.185 831.865,598.232 L831.959,598.232 L831.959,600.99 L836.522,600.99 L836.522,584.24 L831.959,584.24 L831.959,593.865 Q831.959,594.685 831.729,595.365 Q831.498,596.044 831.057,596.533 Q830.615,597.021 830.002,597.287 Q829.389,597.552 828.623,597.552 Q827.084,597.552 826.315,596.65 Q825.545,595.748 825.545,594.107 L825.545,584.24 L820.983,584.24 L820.983,595.052 Q820.983,597.005 821.658,598.416 Q822.334,599.826 823.627,600.58 Q824.92,601.334 826.756,601.334 z" fill="#693091"/>
    <path d="M839.983,600.99 L844.545,600.99 L844.545,584.24 L839.983,584.24 z M842.264,582.091 Q843.295,582.091 843.998,581.388 Q844.701,580.685 844.701,579.716 Q844.701,578.732 843.998,578.037 Q843.295,577.341 842.264,577.341 Q841.24,577.341 840.533,578.037 Q839.826,578.732 839.826,579.716 Q839.826,580.685 840.533,581.388 Q841.24,582.091 842.264,582.091 z" fill="#693091"/>
    <path d="M848.115,600.99 L852.678,600.99 L852.678,578.443 L848.115,578.443 z" fill="#693091"/>
    <path d="M862.365,601.334 Q863.576,601.334 864.576,600.947 Q865.576,600.56 866.326,599.849 Q867.076,599.138 867.522,598.138 L867.615,598.138 L867.615,600.99 L872.178,600.99 L872.178,578.443 L867.615,578.443 L867.615,587.154 L867.522,587.154 Q867.068,586.138 866.311,585.408 Q865.553,584.677 864.553,584.287 Q863.553,583.896 862.358,583.896 Q860.256,583.896 858.729,584.935 Q857.201,585.974 856.373,587.923 Q855.545,589.873 855.545,592.599 L855.545,592.615 Q855.545,595.334 856.369,597.287 Q857.193,599.24 858.725,600.287 Q860.256,601.334 862.365,601.334 z M863.889,597.552 Q862.756,597.552 861.92,596.955 Q861.084,596.357 860.635,595.248 Q860.186,594.138 860.186,592.615 L860.186,592.599 Q860.186,591.068 860.639,589.966 Q861.092,588.865 861.924,588.271 Q862.756,587.677 863.889,587.677 Q864.998,587.677 865.834,588.279 Q866.67,588.88 867.147,589.986 Q867.623,591.091 867.623,592.607 L867.623,592.623 Q867.623,594.13 867.154,595.24 Q866.686,596.349 865.842,596.951 Q864.998,597.552 863.889,597.552 z" fill="#693091"/>
    <path d="M882.748,600.99 L886.951,600.99 L886.951,585.748 L889.131,585.748 L884.412,579.068 L893.17,600.99 L896.131,600.99 L904.889,579.068 L900.17,585.748 L902.35,585.748 L902.35,600.99 L906.553,600.99 L906.553,578.443 L901.1,578.443 L894.701,594.654 L894.6,594.654 L888.201,578.443 L882.748,578.443 z" fill="#693091"/>
    <path d="M917.943,601.334 Q919.733,601.334 921.072,600.865 Q922.412,600.396 923.342,599.615 Q924.272,598.834 924.815,597.9 Q925.358,596.966 925.553,596.044 L925.592,595.865 L921.404,595.865 L921.373,595.959 Q921.217,596.435 920.783,596.888 Q920.35,597.341 919.662,597.634 Q918.975,597.927 918.037,597.927 Q916.85,597.927 915.99,597.404 Q915.131,596.88 914.666,595.896 Q914.201,594.912 914.201,593.529 L914.201,591.755 Q914.201,590.326 914.666,589.33 Q915.131,588.334 915.951,587.818 Q916.772,587.302 917.834,587.302 Q918.897,587.302 919.701,587.802 Q920.506,588.302 920.959,589.294 Q921.412,590.287 921.412,591.755 L921.412,593.513 L923.576,590.826 L911.943,590.826 L911.943,593.701 L925.733,593.701 L925.733,592.294 Q925.733,589.763 924.76,587.873 Q923.787,585.982 921.998,584.939 Q920.209,583.896 917.756,583.896 Q915.303,583.896 913.494,584.97 Q911.686,586.044 910.693,588.005 Q909.701,589.966 909.701,592.63 L909.701,592.646 Q909.701,595.318 910.693,597.271 Q911.686,599.224 913.533,600.279 Q915.381,601.334 917.943,601.334 z" fill="#693091"/>
    <path d="M934.686,601.334 Q935.897,601.334 936.897,600.947 Q937.897,600.56 938.647,599.849 Q939.397,599.138 939.842,598.138 L939.936,598.138 L939.936,600.99 L944.498,600.99 L944.498,578.443 L939.936,578.443 L939.936,587.154 L939.842,587.154 Q939.389,586.138 938.631,585.408 Q937.873,584.677 936.873,584.287 Q935.873,583.896 934.678,583.896 Q932.576,583.896 931.049,584.935 Q929.522,585.974 928.693,587.923 Q927.865,589.873 927.865,592.599 L927.865,592.615 Q927.865,595.334 928.69,597.287 Q929.514,599.24 931.045,600.287 Q932.576,601.334 934.686,601.334 z M936.209,597.552 Q935.076,597.552 934.24,596.955 Q933.404,596.357 932.955,595.248 Q932.506,594.138 932.506,592.615 L932.506,592.599 Q932.506,591.068 932.959,589.966 Q933.412,588.865 934.244,588.271 Q935.076,587.677 936.209,587.677 Q937.318,587.677 938.154,588.279 Q938.99,588.88 939.467,589.986 Q939.943,591.091 939.943,592.607 L939.943,592.623 Q939.943,594.13 939.475,595.24 Q939.006,596.349 938.162,596.951 Q937.318,597.552 936.209,597.552 z" fill="#693091"/>
    <path d="M948.029,600.99 L952.592,600.99 L952.592,584.24 L948.029,584.24 z M950.311,582.091 Q951.342,582.091 952.045,581.388 Q952.748,580.685 952.748,579.716 Q952.748,578.732 952.045,578.037 Q951.342,577.341 950.311,577.341 Q949.287,577.341 948.58,578.037 Q947.873,578.732 947.873,579.716 Q947.873,580.685 948.58,581.388 Q949.287,582.091 950.311,582.091 z" fill="#693091"/>
    <path d="M963.701,601.334 Q965.943,601.334 967.604,600.486 Q969.264,599.638 970.217,598.185 Q971.17,596.732 971.279,594.904 L971.287,594.802 L967.037,594.802 L967.014,594.943 Q966.787,596.216 965.951,596.986 Q965.115,597.755 963.74,597.755 Q962.615,597.755 961.791,597.154 Q960.967,596.552 960.522,595.404 Q960.076,594.255 960.076,592.623 L960.076,592.607 Q960.076,591.005 960.522,589.857 Q960.967,588.709 961.787,588.091 Q962.608,587.474 963.725,587.474 Q965.139,587.474 965.971,588.283 Q966.803,589.091 967.006,590.287 L967.029,590.427 L971.272,590.427 L971.264,590.318 Q971.178,588.505 970.233,587.052 Q969.287,585.599 967.611,584.748 Q965.936,583.896 963.662,583.896 Q961.154,583.896 959.307,584.951 Q957.459,586.005 956.447,587.955 Q955.436,589.904 955.436,592.584 L955.436,592.599 Q955.436,595.294 956.44,597.255 Q957.443,599.216 959.299,600.275 Q961.154,601.334 963.701,601.334 z" fill="#693091"/>
    <path d="M978.873,601.255 Q979.975,601.255 980.916,600.923 Q981.858,600.591 982.596,599.97 Q983.334,599.349 983.811,598.498 L983.904,598.498 L983.904,600.99 L988.467,600.99 L988.467,589.505 Q988.467,587.818 987.584,586.556 Q986.701,585.294 985.104,584.595 Q983.506,583.896 981.342,583.896 Q979.131,583.896 977.533,584.58 Q975.936,585.263 975.037,586.462 Q974.139,587.662 974.006,589.216 L973.99,589.404 L978.162,589.404 L978.193,589.255 Q978.365,588.443 979.119,587.916 Q979.873,587.388 981.147,587.388 Q982.49,587.388 983.197,588.033 Q983.904,588.677 983.904,589.794 L983.904,594.873 Q983.904,595.74 983.44,596.435 Q982.975,597.13 982.174,597.529 Q981.373,597.927 980.35,597.927 Q979.17,597.927 978.463,597.404 Q977.756,596.88 977.756,595.959 L977.756,595.935 Q977.756,595.044 978.443,594.505 Q979.131,593.966 980.451,593.888 L986.295,593.505 L986.295,590.669 L979.764,591.076 Q977.686,591.209 976.229,591.837 Q974.772,592.466 974.006,593.552 Q973.24,594.638 973.24,596.169 L973.24,596.193 Q973.24,597.669 973.951,598.814 Q974.662,599.959 975.932,600.607 Q977.201,601.255 978.873,601.255 z" fill="#693091"/>
    <path d="M991.912,600.99 L996.475,600.99 L996.475,578.443 L991.912,578.443 z" fill="#693091"/>
    <path d="M1005.639,600.99 L1010.6,600.99 L1016.24,582.818 L1017.678,582.818 L1017.678,578.443 L1013.514,578.443 z M1009.873,595.521 L1022.701,595.521 L1021.545,591.99 L1011.029,591.99 z M1021.967,600.99 L1026.928,600.99 L1019.061,578.443 L1016.334,578.443 L1016.334,582.818 z" fill="#693091"/>
    <path d="M1029.639,600.99 L1034.358,600.99 L1034.358,578.443 L1029.639,578.443 z" fill="#693091"/>
    <path d="M1051.514,601.334 Q1052.225,601.334 1052.779,601.279 Q1053.334,601.224 1053.717,601.162 L1053.717,597.826 Q1053.506,597.849 1053.272,597.873 Q1053.037,597.896 1052.733,597.896 Q1051.693,597.896 1051.174,597.439 Q1050.654,596.982 1050.654,595.81 L1050.654,587.677 L1053.717,587.677 L1053.717,584.24 L1050.654,584.24 L1050.654,580.154 L1046.045,580.154 L1046.045,584.24 L1043.717,584.24 L1043.717,587.677 L1046.045,587.677 L1046.045,596.31 Q1046.045,598.998 1047.385,600.166 Q1048.725,601.334 1051.514,601.334 z" fill="#693091"/>
    <path d="M1064.076,601.334 Q1066.615,601.334 1068.475,600.294 Q1070.334,599.255 1071.354,597.306 Q1072.373,595.357 1072.373,592.623 L1072.373,592.591 Q1072.373,589.873 1071.342,587.927 Q1070.311,585.982 1068.447,584.939 Q1066.584,583.896 1064.068,583.896 Q1061.568,583.896 1059.705,584.943 Q1057.842,585.99 1056.811,587.939 Q1055.779,589.888 1055.779,592.591 L1055.779,592.623 Q1055.779,595.341 1056.795,597.294 Q1057.811,599.248 1059.674,600.291 Q1061.537,601.334 1064.076,601.334 z M1064.092,597.755 Q1062.967,597.755 1062.143,597.154 Q1061.318,596.552 1060.869,595.404 Q1060.42,594.255 1060.42,592.623 L1060.42,592.591 Q1060.42,590.966 1060.873,589.826 Q1061.326,588.685 1062.151,588.08 Q1062.975,587.474 1064.068,587.474 Q1065.178,587.474 1066.002,588.076 Q1066.826,588.677 1067.279,589.822 Q1067.733,590.966 1067.733,592.591 L1067.733,592.623 Q1067.733,594.255 1067.287,595.404 Q1066.842,596.552 1066.026,597.154 Q1065.209,597.755 1064.092,597.755 z" fill="#693091"/>
    <path d="M1082.951,606.802 Q1085.467,606.802 1087.303,606.009 Q1089.139,605.216 1090.135,603.802 Q1091.131,602.388 1091.131,600.521 L1091.131,584.24 L1086.568,584.24 L1086.568,587.107 L1086.467,587.107 Q1086.014,586.123 1085.272,585.404 Q1084.529,584.685 1083.545,584.291 Q1082.561,583.896 1081.373,583.896 Q1079.256,583.896 1077.721,584.916 Q1076.186,585.935 1075.35,587.837 Q1074.514,589.74 1074.514,592.419 L1074.514,592.435 Q1074.514,595.029 1075.334,596.892 Q1076.154,598.755 1077.682,599.755 Q1079.209,600.755 1081.303,600.755 Q1082.514,600.755 1083.522,600.404 Q1084.529,600.052 1085.283,599.416 Q1086.037,598.779 1086.475,597.896 L1086.568,597.896 L1086.568,600.466 Q1086.568,601.865 1085.647,602.709 Q1084.725,603.552 1082.959,603.552 Q1081.529,603.552 1080.639,603.087 Q1079.748,602.623 1079.475,602.005 L1079.428,601.896 L1074.983,601.896 L1075.006,602.037 Q1075.225,603.38 1076.233,604.462 Q1077.24,605.544 1078.947,606.173 Q1080.654,606.802 1082.951,606.802 z M1082.881,597.412 Q1081.748,597.412 1080.904,596.822 Q1080.061,596.232 1079.608,595.138 Q1079.154,594.044 1079.154,592.537 L1079.154,592.521 Q1079.154,591.013 1079.611,589.931 Q1080.068,588.849 1080.908,588.263 Q1081.748,587.677 1082.881,587.677 Q1083.99,587.677 1084.822,588.267 Q1085.654,588.857 1086.119,589.943 Q1086.584,591.029 1086.584,592.529 L1086.584,592.544 Q1086.584,594.037 1086.123,595.13 Q1085.662,596.224 1084.83,596.818 Q1083.998,597.412 1082.881,597.412 z" fill="#693091"/>
    <path d="M1102.139,601.334 Q1103.928,601.334 1105.268,600.865 Q1106.608,600.396 1107.537,599.615 Q1108.467,598.834 1109.01,597.9 Q1109.553,596.966 1109.748,596.044 L1109.787,595.865 L1105.6,595.865 L1105.568,595.959 Q1105.412,596.435 1104.979,596.888 Q1104.545,597.341 1103.858,597.634 Q1103.17,597.927 1102.233,597.927 Q1101.045,597.927 1100.186,597.404 Q1099.326,596.88 1098.861,595.896 Q1098.397,594.912 1098.397,593.529 L1098.397,591.755 Q1098.397,590.326 1098.861,589.33 Q1099.326,588.334 1100.147,587.818 Q1100.967,587.302 1102.029,587.302 Q1103.092,587.302 1103.897,587.802 Q1104.701,588.302 1105.154,589.294 Q1105.608,590.287 1105.608,591.755 L1105.608,593.513 L1107.772,590.826 L1096.139,590.826 L1096.139,593.701 L1109.928,593.701 L1109.928,592.294 Q1109.928,589.763 1108.955,587.873 Q1107.983,585.982 1106.193,584.939 Q1104.404,583.896 1101.951,583.896 Q1099.498,583.896 1097.69,584.97 Q1095.881,586.044 1094.889,588.005 Q1093.897,589.966 1093.897,592.63 L1093.897,592.646 Q1093.897,595.318 1094.889,597.271 Q1095.881,599.224 1097.729,600.279 Q1099.576,601.334 1102.139,601.334 z" fill="#693091"/>
    <path d="M1119.334,601.334 Q1120.045,601.334 1120.6,601.279 Q1121.154,601.224 1121.537,601.162 L1121.537,597.826 Q1121.326,597.849 1121.092,597.873 Q1120.858,597.896 1120.553,597.896 Q1119.514,597.896 1118.994,597.439 Q1118.475,596.982 1118.475,595.81 L1118.475,587.677 L1121.537,587.677 L1121.537,584.24 L1118.475,584.24 L1118.475,580.154 L1113.865,580.154 L1113.865,584.24 L1111.537,584.24 L1111.537,587.677 L1113.865,587.677 L1113.865,596.31 Q1113.865,598.998 1115.205,600.166 Q1116.545,601.334 1119.334,601.334 z" fill="#693091"/>
    <path d="M1124.561,600.99 L1129.123,600.99 L1129.123,591.404 Q1129.123,590.302 1129.533,589.466 Q1129.943,588.63 1130.69,588.154 Q1131.436,587.677 1132.436,587.677 Q1133.99,587.677 1134.826,588.669 Q1135.662,589.662 1135.662,591.412 L1135.662,600.99 L1140.225,600.99 L1140.225,590.474 Q1140.225,588.451 1139.514,586.978 Q1138.803,585.505 1137.49,584.701 Q1136.178,583.896 1134.358,583.896 Q1132.475,583.896 1131.17,584.736 Q1129.865,585.576 1129.217,587.138 L1129.123,587.138 L1129.123,578.443 L1124.561,578.443 z" fill="#693091"/>
    <path d="M1151.178,601.334 Q1152.967,601.334 1154.307,600.865 Q1155.647,600.396 1156.576,599.615 Q1157.506,598.834 1158.049,597.9 Q1158.592,596.966 1158.787,596.044 L1158.826,595.865 L1154.639,595.865 L1154.608,595.959 Q1154.451,596.435 1154.018,596.888 Q1153.584,597.341 1152.897,597.634 Q1152.209,597.927 1151.272,597.927 Q1150.084,597.927 1149.225,597.404 Q1148.365,596.88 1147.901,595.896 Q1147.436,594.912 1147.436,593.529 L1147.436,591.755 Q1147.436,590.326 1147.901,589.33 Q1148.365,588.334 1149.186,587.818 Q1150.006,587.302 1151.068,587.302 Q1152.131,587.302 1152.936,587.802 Q1153.74,588.302 1154.193,589.294 Q1154.647,590.287 1154.647,591.755 L1154.647,593.513 L1156.811,590.826 L1145.178,590.826 L1145.178,593.701 L1158.967,593.701 L1158.967,592.294 Q1158.967,589.763 1157.994,587.873 Q1157.022,585.982 1155.233,584.939 Q1153.443,583.896 1150.99,583.896 Q1148.537,583.896 1146.729,584.97 Q1144.92,586.044 1143.928,588.005 Q1142.936,589.966 1142.936,592.63 L1142.936,592.646 Q1142.936,595.318 1143.928,597.271 Q1144.92,599.224 1146.768,600.279 Q1148.615,601.334 1151.178,601.334 z" fill="#693091"/>
    <path d="M1161.717,600.99 L1166.279,600.99 L1166.279,591.615 Q1166.279,590.396 1166.697,589.552 Q1167.115,588.709 1167.916,588.271 Q1168.717,587.834 1169.842,587.834 Q1170.342,587.834 1170.779,587.904 Q1171.217,587.974 1171.498,588.091 L1171.498,584.076 Q1171.24,583.998 1170.901,583.947 Q1170.561,583.896 1170.178,583.896 Q1168.717,583.896 1167.729,584.755 Q1166.74,585.615 1166.373,587.162 L1166.279,587.162 L1166.279,584.24 L1161.717,584.24 z" fill="#693091"/>
    <path d="M1175.373,593.412 L1179.311,593.412 L1179.686,578.443 L1174.998,578.443 z M1177.342,601.177 Q1178.404,601.177 1179.147,600.466 Q1179.889,599.755 1179.889,598.724 Q1179.889,597.693 1179.147,596.986 Q1178.404,596.279 1177.342,596.279 Q1176.279,596.279 1175.533,596.986 Q1174.787,597.693 1174.787,598.724 Q1174.787,599.755 1175.533,600.466 Q1176.279,601.177 1177.342,601.177 z" fill="#693091"/>
    <path d="M732.121,688.889 Q735.173,688.889 737.368,687.731 Q739.563,686.573 740.745,684.486 Q741.926,682.399 741.926,679.634 L741.926,663.125 L739.538,663.125 L739.538,679.49 Q739.538,681.646 738.657,683.261 Q737.776,684.876 736.116,685.778 Q734.457,686.68 732.121,686.68 Q729.796,686.68 728.133,685.778 Q726.47,684.876 725.581,683.261 Q724.691,681.646 724.691,679.49 L724.691,663.125 L722.302,663.125 L722.302,679.634 Q722.302,682.399 723.488,684.483 Q724.673,686.567 726.874,687.728 Q729.074,688.889 732.121,688.889 z" fill="#308EEC"/>
    <path d="M746.665,688.49 L748.982,688.49 L748.982,677.66 Q748.982,675.946 749.643,674.664 Q750.304,673.382 751.503,672.666 Q752.703,671.949 754.299,671.949 Q756.63,671.949 757.864,673.285 Q759.099,674.621 759.099,677.164 L759.099,688.49 L761.415,688.49 L761.415,676.785 Q761.415,673.557 759.71,671.721 Q758.004,669.885 754.965,669.885 Q752.758,669.885 751.247,670.864 Q749.735,671.842 749.041,673.331 L748.982,673.331 L748.982,670.209 L746.665,670.209 z" fill="#308EEC"/>
    <path d="M765.874,688.49 L768.19,688.49 L768.19,670.209 L765.874,670.209 z M767.032,666.899 Q767.68,666.899 768.126,666.45 Q768.571,666.001 768.571,665.365 Q768.571,664.717 768.126,664.274 Q767.68,663.831 767.032,663.831 Q766.401,663.831 765.947,664.274 Q765.492,664.717 765.492,665.365 Q765.492,666.001 765.947,666.45 Q766.401,666.899 767.032,666.899 z" fill="#308EEC"/>
    <path d="M777.82,688.49 L780.296,688.49 L787.083,670.209 L784.66,670.209 L779.088,686.057 L779.029,686.057 L773.469,670.209 L771.021,670.209 z" fill="#308EEC"/>
    <path d="M796.596,688.819 Q798.074,688.819 799.338,688.423 Q800.601,688.026 801.59,687.296 Q802.578,686.565 803.219,685.578 Q803.861,684.591 804.106,683.422 L804.141,683.252 L801.85,683.252 L801.802,683.404 Q801.506,684.406 800.802,685.162 Q800.098,685.918 799.045,686.336 Q797.993,686.755 796.644,686.755 Q794.82,686.755 793.466,685.928 Q792.112,685.102 791.37,683.531 Q790.628,681.961 790.628,679.728 L790.628,678.861 Q790.628,676.672 791.371,675.122 Q792.113,673.573 793.417,672.758 Q794.721,671.944 796.385,671.944 Q798.049,671.944 799.329,672.734 Q800.609,673.524 801.337,675.068 Q802.064,676.612 802.064,678.861 L802.064,679.728 L803.245,678.067 L789.445,678.067 L789.445,679.915 L804.37,679.915 L804.37,679.001 Q804.37,676.258 803.395,674.204 Q802.42,672.149 800.629,671.014 Q798.838,669.879 796.397,669.879 Q793.957,669.879 792.133,671.058 Q790.31,672.237 789.298,674.374 Q788.287,676.511 788.287,679.38 L788.287,679.397 Q788.287,682.285 789.298,684.403 Q790.309,686.521 792.173,687.67 Q794.038,688.819 796.596,688.819 z" fill="#308EEC"/>
    <path d="M807.837,688.49 L810.154,688.49 L810.154,677.166 Q810.154,675.622 810.673,674.479 Q811.193,673.337 812.152,672.713 Q813.112,672.088 814.4,672.088 Q815.002,672.088 815.464,672.166 Q815.926,672.244 816.146,672.347 L816.146,670.08 Q815.937,670.011 815.556,669.945 Q815.176,669.879 814.711,669.879 Q813.047,669.879 811.875,670.847 Q810.703,671.814 810.213,673.496 L810.154,673.496 L810.154,670.209 L807.837,670.209 z" fill="#308EEC"/>
    <path d="M825.181,688.819 Q827.181,688.819 828.743,688.144 Q830.304,687.469 831.196,686.272 Q832.089,685.075 832.089,683.52 L832.089,683.502 Q832.089,681.573 830.942,680.429 Q829.794,679.285 827.05,678.633 L824.299,677.975 Q823.098,677.684 822.346,677.274 Q821.594,676.863 821.249,676.296 Q820.904,675.728 820.904,675.002 L820.904,674.985 Q820.904,674.054 821.417,673.342 Q821.931,672.631 822.864,672.233 Q823.797,671.836 825.038,671.836 Q826.959,671.836 828.126,672.799 Q829.294,673.763 829.508,675.359 L829.526,675.482 L831.746,675.482 L831.729,675.281 Q831.59,673.708 830.74,672.489 Q829.89,671.27 828.438,670.575 Q826.986,669.879 825.038,669.879 Q823.141,669.879 821.67,670.543 Q820.2,671.206 819.369,672.377 Q818.539,673.549 818.539,675.075 L818.539,675.093 Q818.539,676.356 819.093,677.296 Q819.647,678.236 820.778,678.891 Q821.909,679.545 823.637,679.962 L826.388,680.62 Q828.235,681.062 828.979,681.763 Q829.724,682.463 829.724,683.652 L829.724,683.67 Q829.724,684.629 829.163,685.351 Q828.603,686.074 827.591,686.468 Q826.579,686.863 825.187,686.863 Q823.125,686.863 821.874,685.915 Q820.624,684.968 820.348,683.381 L820.319,683.216 L818.002,683.216 L818.02,683.375 Q818.208,684.987 819.119,686.215 Q820.029,687.443 821.572,688.131 Q823.114,688.819 825.181,688.819 z" fill="#308EEC"/>
    <path d="M835.743,688.49 L838.06,688.49 L838.06,670.209 L835.743,670.209 z M836.901,666.899 Q837.55,666.899 837.995,666.45 Q838.441,666.001 838.441,665.365 Q838.441,664.717 837.995,664.274 Q837.55,663.831 836.901,663.831 Q836.271,663.831 835.817,664.274 Q835.362,664.717 835.362,665.365 Q835.362,666.001 835.817,666.45 Q836.271,666.899 836.901,666.899 z" fill="#308EEC"/>
    <path d="M848.066,688.819 Q848.495,688.819 848.905,688.778 Q849.314,688.737 849.579,688.691 L849.579,686.793 Q849.391,686.822 849.119,686.848 Q848.848,686.875 848.539,686.875 Q847.253,686.875 846.612,686.279 Q845.971,685.683 845.971,684.163 L845.971,672.153 L849.579,672.153 L849.579,670.208 L845.971,670.208 L845.971,665.269 L843.582,665.269 L843.582,670.208 L840.894,670.208 L840.894,672.153 L843.582,672.153 L843.582,684.203 Q843.582,686.595 844.697,687.707 Q845.812,688.819 848.066,688.819 z" fill="#308EEC"/>
    <path d="M854.455,694.642 Q856.018,694.642 857.092,694.145 Q858.165,693.648 858.921,692.61 Q859.677,691.572 860.283,689.948 L867.614,670.209 L865.167,670.209 L859.388,686.804 L859.989,686.19 L859.147,686.19 L859.742,686.804 L853.975,670.209 L851.492,670.209 L858.372,688.607 L857.942,689.794 Q857.341,691.462 856.446,692.08 Q855.551,692.698 853.998,692.698 Q853.767,692.698 853.556,692.674 Q853.345,692.65 853.174,692.626 L853.174,694.546 Q853.423,694.582 853.769,694.612 Q854.115,694.642 854.455,694.642 z" fill="#308EEC"/>
    <path d="M885.426,688.819 Q887.913,688.819 889.784,687.665 Q891.654,686.51 892.704,684.386 Q893.753,682.262 893.753,679.349 L893.753,679.314 Q893.753,676.402 892.704,674.289 Q891.654,672.176 889.777,671.028 Q887.901,669.879 885.414,669.879 Q882.939,669.879 881.065,671.028 Q879.191,672.176 878.144,674.292 Q877.097,676.407 877.097,679.314 L877.097,679.349 Q877.097,682.244 878.141,684.374 Q879.185,686.505 881.062,687.659 Q882.939,688.814 885.426,688.819 z M885.438,686.755 Q883.638,686.749 882.295,685.866 Q880.953,684.983 880.207,683.322 Q879.462,681.66 879.462,679.349 L879.462,679.314 Q879.462,677.003 880.207,675.356 Q880.953,673.71 882.295,672.827 Q883.638,671.944 885.414,671.944 Q887.208,671.944 888.553,672.821 Q889.899,673.698 890.644,675.348 Q891.389,676.998 891.389,679.314 L891.389,679.349 Q891.389,681.66 890.646,683.322 Q889.904,684.983 888.571,685.869 Q887.238,686.755 885.438,686.755 z" fill="#308EEC"/>
    <path d="M898.166,688.49 L900.483,688.49 L900.483,672.153 L904.404,672.153 L904.404,670.209 L900.459,670.209 L900.459,667.661 Q900.459,666.135 901.167,665.437 Q901.874,664.74 903.201,664.74 Q903.558,664.74 903.898,664.763 Q904.238,664.786 904.519,664.832 L904.519,662.929 Q904.224,662.877 903.764,662.836 Q903.304,662.795 902.827,662.795 Q901.301,662.795 900.265,663.311 Q899.23,663.826 898.698,664.894 Q898.166,665.963 898.166,667.615 L898.166,670.209 L895.618,670.209 L895.618,672.153 L898.166,672.153 z" fill="#308EEC"/>
    <path d="M926.404,688.889 Q929.947,688.889 932.521,687.293 Q935.096,685.696 936.5,682.76 Q937.904,679.825 937.904,675.81 L937.904,675.775 Q937.904,671.772 936.5,668.848 Q935.096,665.924 932.515,664.325 Q929.935,662.725 926.393,662.725 Q922.868,662.725 920.282,664.325 Q917.695,665.924 916.282,668.845 Q914.869,671.766 914.869,675.775 L914.869,675.81 Q914.869,679.825 916.273,682.76 Q917.678,685.696 920.27,687.293 Q922.862,688.889 926.404,688.889 z M926.404,686.68 Q923.62,686.68 921.578,685.346 Q919.535,684.013 918.42,681.57 Q917.306,679.127 917.306,675.81 L917.306,675.775 Q917.306,672.447 918.42,670.018 Q919.535,667.59 921.578,666.262 Q923.621,664.934 926.393,664.934 Q929.171,664.934 931.211,666.262 Q933.25,667.59 934.359,670.024 Q935.467,672.459 935.467,675.775 L935.467,675.81 Q935.467,679.109 934.368,681.549 Q933.268,683.99 931.237,685.335 Q929.206,686.68 926.404,686.68 z" fill="#308EEC"/>
    <path d="M940.044,688.49 L942.645,688.49 L947.688,680.981 L947.747,680.981 L952.767,688.49 L955.368,688.49 L949.036,679.204 L955.428,670.209 L952.809,670.209 L947.82,677.551 L947.76,677.551 L942.74,670.209 L940.116,670.209 L946.472,679.288 z" fill="#308EEC"/>
    <path d="M959.131,688.49 L961.447,688.49 L961.447,672.153 L965.368,672.153 L965.368,670.209 L961.423,670.209 L961.423,667.661 Q961.423,666.135 962.131,665.437 Q962.839,664.74 964.165,664.74 Q964.522,664.74 964.862,664.763 Q965.202,664.786 965.483,664.832 L965.483,662.929 Q965.188,662.877 964.728,662.836 Q964.268,662.795 963.792,662.795 Q962.265,662.795 961.229,663.311 Q960.194,663.826 959.662,664.894 Q959.131,665.963 959.131,667.615 L959.131,670.209 L956.582,670.209 L956.582,672.153 L959.131,672.153 z" fill="#308EEC"/>
    <path d="M974.531,688.819 Q977.018,688.819 978.889,687.665 Q980.759,686.51 981.809,684.386 Q982.859,682.262 982.859,679.349 L982.859,679.314 Q982.859,676.402 981.809,674.289 Q980.759,672.176 978.883,671.028 Q977.006,669.879 974.519,669.879 Q972.044,669.879 970.17,671.028 Q968.296,672.176 967.249,674.292 Q966.202,676.407 966.202,679.314 L966.202,679.349 Q966.202,682.244 967.246,684.374 Q968.291,686.505 970.167,687.659 Q972.044,688.814 974.531,688.819 z M974.543,686.755 Q972.743,686.749 971.401,685.866 Q970.058,684.983 969.313,683.322 Q968.567,681.66 968.567,679.349 L968.567,679.314 Q968.567,677.003 969.313,675.356 Q970.058,673.71 971.401,672.827 Q972.743,671.944 974.519,671.944 Q976.313,671.944 977.659,672.821 Q979.004,673.698 979.749,675.348 Q980.494,676.998 980.494,679.314 L980.494,679.349 Q980.494,681.66 979.752,683.322 Q979.01,684.983 977.676,685.869 Q976.343,686.755 974.543,686.755 z" fill="#308EEC"/>
    <path d="M986.326,688.49 L988.643,688.49 L988.643,677.166 Q988.643,675.622 989.162,674.479 Q989.682,673.337 990.641,672.713 Q991.601,672.088 992.889,672.088 Q993.491,672.088 993.953,672.166 Q994.415,672.244 994.635,672.347 L994.635,670.08 Q994.426,670.011 994.046,669.945 Q993.665,669.879 993.2,669.879 Q991.536,669.879 990.364,670.847 Q989.192,671.814 988.702,673.496 L988.643,673.496 L988.643,670.209 L986.326,670.209 z" fill="#308EEC"/>
    <path d="M1003.288,688.819 Q1004.74,688.819 1005.949,688.306 Q1007.158,687.793 1008.072,686.867 Q1008.986,685.942 1009.51,684.676 L1009.586,684.676 L1009.586,688.49 L1011.903,688.49 L1011.903,663.125 L1009.586,663.125 L1009.586,674.042 L1009.527,674.042 Q1009.014,672.766 1008.091,671.833 Q1007.168,670.899 1005.938,670.389 Q1004.708,669.879 1003.258,669.879 Q1000.984,669.879 999.246,671.054 Q997.509,672.228 996.53,674.35 Q995.552,676.471 995.552,679.326 L995.552,679.344 Q995.552,682.199 996.522,684.332 Q997.491,686.465 999.235,687.642 Q1000.978,688.819 1003.288,688.819 z M1003.726,686.754 Q1001.959,686.754 1000.651,685.846 Q999.343,684.937 998.63,683.266 Q997.917,681.596 997.917,679.344 L997.917,679.326 Q997.917,677.074 998.63,675.421 Q999.343,673.768 1000.651,672.856 Q1001.959,671.944 1003.72,671.944 Q1005.438,671.944 1006.758,672.873 Q1008.077,673.803 1008.838,675.467 Q1009.598,677.132 1009.598,679.337 L1009.598,679.355 Q1009.598,681.554 1008.846,683.225 Q1008.095,684.895 1006.77,685.825 Q1005.444,686.754 1003.726,686.754 z" fill="#308EEC"/>
    <path d="M721.811,728.49 L726.014,728.49 L726.014,713.248 L728.193,713.248 L723.475,706.568 L732.232,728.49 L735.193,728.49 L743.951,706.568 L739.232,713.248 L741.412,713.248 L741.412,728.49 L745.615,728.49 L745.615,705.943 L740.162,705.943 L733.764,722.154 L733.662,722.154 L727.264,705.943 L721.811,705.943 z" fill="#929292"/>
    <path d="M754.014,728.755 Q755.115,728.755 756.057,728.423 Q756.998,728.091 757.736,727.47 Q758.475,726.849 758.951,725.998 L759.045,725.998 L759.045,728.49 L763.607,728.49 L763.607,717.005 Q763.607,715.318 762.725,714.056 Q761.842,712.794 760.244,712.095 Q758.647,711.396 756.482,711.396 Q754.272,711.396 752.674,712.08 Q751.076,712.763 750.178,713.962 Q749.279,715.162 749.147,716.716 L749.131,716.904 L753.303,716.904 L753.334,716.755 Q753.506,715.943 754.26,715.416 Q755.014,714.888 756.287,714.888 Q757.631,714.888 758.338,715.533 Q759.045,716.177 759.045,717.294 L759.045,722.373 Q759.045,723.24 758.58,723.935 Q758.115,724.63 757.315,725.029 Q756.514,725.427 755.49,725.427 Q754.311,725.427 753.604,724.904 Q752.897,724.38 752.897,723.459 L752.897,723.435 Q752.897,722.544 753.584,722.005 Q754.272,721.466 755.592,721.388 L761.436,721.005 L761.436,718.169 L754.904,718.576 Q752.826,718.709 751.369,719.337 Q749.912,719.966 749.147,721.052 Q748.381,722.138 748.381,723.669 L748.381,723.693 Q748.381,725.169 749.092,726.314 Q749.803,727.459 751.072,728.107 Q752.342,728.755 754.014,728.755 z" fill="#929292"/>
    <path d="M766.943,728.49 L771.506,728.49 L771.506,719.115 Q771.506,717.896 771.924,717.052 Q772.342,716.209 773.143,715.771 Q773.943,715.334 775.068,715.334 Q775.568,715.334 776.006,715.404 Q776.443,715.474 776.725,715.591 L776.725,711.576 Q776.467,711.498 776.127,711.447 Q775.787,711.396 775.404,711.396 Q773.943,711.396 772.955,712.255 Q771.967,713.115 771.6,714.662 L771.506,714.662 L771.506,711.74 L766.943,711.74 z" fill="#929292"/>
    <path d="M786.092,728.834 Q788.334,728.834 789.994,727.986 Q791.654,727.138 792.607,725.685 Q793.561,724.232 793.67,722.404 L793.678,722.302 L789.428,722.302 L789.404,722.443 Q789.178,723.716 788.342,724.486 Q787.506,725.255 786.131,725.255 Q785.006,725.255 784.182,724.654 Q783.357,724.052 782.912,722.904 Q782.467,721.755 782.467,720.123 L782.467,720.107 Q782.467,718.505 782.912,717.357 Q783.357,716.209 784.178,715.591 Q784.998,714.974 786.115,714.974 Q787.529,714.974 788.361,715.783 Q789.193,716.591 789.397,717.787 L789.42,717.927 L793.662,717.927 L793.654,717.818 Q793.568,716.005 792.623,714.552 Q791.678,713.099 790.002,712.248 Q788.326,711.396 786.053,711.396 Q783.545,711.396 781.697,712.451 Q779.85,713.505 778.838,715.455 Q777.826,717.404 777.826,720.084 L777.826,720.099 Q777.826,722.794 778.83,724.755 Q779.834,726.716 781.69,727.775 Q783.545,728.834 786.092,728.834 z" fill="#929292"/>
    <path d="M796.389,728.49 L800.951,728.49 L800.951,718.904 Q800.951,717.802 801.361,716.966 Q801.772,716.13 802.518,715.654 Q803.264,715.177 804.264,715.177 Q805.818,715.177 806.654,716.169 Q807.49,717.162 807.49,718.912 L807.49,728.49 L812.053,728.49 L812.053,717.974 Q812.053,715.951 811.342,714.478 Q810.631,713.005 809.318,712.201 Q808.006,711.396 806.186,711.396 Q804.303,711.396 802.998,712.236 Q801.693,713.076 801.045,714.638 L800.951,714.638 L800.951,705.943 L796.389,705.943 z" fill="#929292"/>
    <path d="M822.225,728.49 L838.615,728.49 L838.615,724.74 L826.592,724.74 L828.389,726.193 L828.389,723.021 L826.584,726.193 L833.115,720.24 Q835.061,718.443 836.19,717.142 Q837.318,715.841 837.807,714.677 Q838.295,713.513 838.295,712.146 L838.295,712.115 Q838.295,710.193 837.279,708.712 Q836.264,707.232 834.455,706.392 Q832.647,705.552 830.256,705.552 Q827.873,705.552 825.994,706.474 Q824.115,707.396 823.037,709.029 Q821.959,710.662 821.959,712.787 L821.959,712.912 L826.334,712.912 L826.342,712.771 Q826.373,711.755 826.873,710.955 Q827.373,710.154 828.252,709.689 Q829.131,709.224 830.279,709.224 Q831.287,709.224 832.057,709.63 Q832.826,710.037 833.264,710.748 Q833.701,711.459 833.701,712.388 L833.701,712.419 Q833.701,713.201 833.428,713.916 Q833.154,714.63 832.404,715.537 Q831.654,716.443 830.193,717.81 L822.225,725.263 z" fill="#929292"/>
    <path d="M850.584,728.88 Q853.162,728.88 855.127,727.884 Q857.092,726.888 858.197,725.103 Q859.303,723.318 859.303,720.966 L859.303,720.935 Q859.303,718.802 858.35,717.15 Q857.397,715.498 855.736,714.548 Q854.076,713.599 851.928,713.599 Q850.787,713.599 849.807,713.896 Q848.826,714.193 848.072,714.736 Q847.318,715.279 846.842,716.044 L846.748,716.044 L847.303,709.693 L857.936,709.693 L857.936,705.943 L843.553,705.943 L842.522,719.185 L846.623,719.185 Q846.818,718.826 847.096,718.509 Q847.373,718.193 847.701,717.935 Q848.279,717.466 849.018,717.224 Q849.756,716.982 850.615,716.982 Q851.834,716.982 852.775,717.498 Q853.717,718.013 854.256,718.923 Q854.795,719.834 854.795,721.021 L854.795,721.052 Q854.795,722.255 854.26,723.181 Q853.725,724.107 852.779,724.627 Q851.834,725.146 850.6,725.146 Q849.522,725.146 848.658,724.748 Q847.795,724.349 847.24,723.666 Q846.686,722.982 846.514,722.138 L846.49,722.029 L842.131,722.029 L842.147,722.255 Q842.287,724.138 843.361,725.638 Q844.436,727.138 846.283,728.009 Q848.131,728.88 850.584,728.88 z" fill="#929292"/>
    <path d="M862.732,721.318 L872.857,721.318 L872.857,717.334 L862.732,717.334 z" fill="#929292"/>
    <path d="M876.85,728.49 L893.24,728.49 L893.24,724.74 L881.217,724.74 L883.014,726.193 L883.014,723.021 L881.209,726.193 L887.74,720.24 Q889.686,718.443 890.815,717.142 Q891.943,715.841 892.432,714.677 Q892.92,713.513 892.92,712.146 L892.92,712.115 Q892.92,710.193 891.904,708.712 Q890.889,707.232 889.08,706.392 Q887.272,705.552 884.881,705.552 Q882.498,705.552 880.619,706.474 Q878.74,707.396 877.662,709.029 Q876.584,710.662 876.584,712.787 L876.584,712.912 L880.959,712.912 L880.967,712.771 Q880.998,711.755 881.498,710.955 Q881.998,710.154 882.877,709.689 Q883.756,709.224 884.904,709.224 Q885.912,709.224 886.682,709.63 Q887.451,710.037 887.889,710.748 Q888.326,711.459 888.326,712.388 L888.326,712.419 Q888.326,713.201 888.053,713.916 Q887.779,714.63 887.029,715.537 Q886.279,716.443 884.818,717.81 L876.85,725.263 z" fill="#929292"/>
    <path d="M905.139,705.552 Q902.631,705.552 900.67,706.564 Q898.709,707.576 897.58,709.353 Q896.451,711.13 896.451,713.435 L896.451,713.466 Q896.451,715.576 897.381,717.232 Q898.311,718.888 899.967,719.834 Q901.623,720.779 903.795,720.779 Q905.326,720.779 906.553,720.306 Q907.779,719.834 908.643,719.017 Q909.506,718.201 909.951,717.154 L910.287,717.154 L910.287,713.334 L909.334,713.334 L909.334,713.357 Q909.334,714.505 908.783,715.396 Q908.232,716.287 907.287,716.791 Q906.342,717.294 905.154,717.294 Q903.99,717.294 903.061,716.787 Q902.131,716.279 901.592,715.377 Q901.053,714.474 901.053,713.302 L901.053,713.271 Q901.053,712.154 901.611,711.255 Q902.17,710.357 903.111,709.83 Q904.053,709.302 905.201,709.302 Q906.365,709.302 907.303,709.837 Q908.24,710.373 908.787,711.283 Q909.334,712.193 909.334,713.334 L910.045,717.084 Q910.045,717.318 910.041,717.548 Q910.037,717.779 910.022,718.013 Q909.936,719.998 909.4,721.615 Q908.865,723.232 907.818,724.185 Q906.772,725.138 905.115,725.138 Q904.193,725.138 903.471,724.849 Q902.748,724.56 902.244,724.044 Q901.74,723.529 901.459,722.857 L901.404,722.724 L896.748,722.724 L896.779,722.873 Q897.123,724.615 898.264,725.97 Q899.404,727.326 901.162,728.103 Q902.92,728.88 905.1,728.88 Q908.045,728.88 910.158,727.462 Q912.272,726.044 913.412,723.392 Q914.553,720.74 914.553,717.044 L914.553,717.013 Q914.553,714.146 913.854,711.998 Q913.154,709.849 911.885,708.416 Q910.615,706.982 908.9,706.267 Q907.186,705.552 905.139,705.552 z" fill="#929292"/>
    <path d="M916.061,733.201 L919.217,733.201 L921.506,724.56 L917.193,724.56 z" fill="#929292"/>
    <path d="M930.014,728.49 L946.404,728.49 L946.404,724.74 L934.381,724.74 L936.178,726.193 L936.178,723.021 L934.373,726.193 L940.904,720.24 Q942.85,718.443 943.979,717.142 Q945.107,715.841 945.596,714.677 Q946.084,713.513 946.084,712.146 L946.084,712.115 Q946.084,710.193 945.068,708.712 Q944.053,707.232 942.244,706.392 Q940.436,705.552 938.045,705.552 Q935.662,705.552 933.783,706.474 Q931.904,707.396 930.826,709.029 Q929.748,710.662 929.748,712.787 L929.748,712.912 L934.123,712.912 L934.131,712.771 Q934.162,711.755 934.662,710.955 Q935.162,710.154 936.041,709.689 Q936.92,709.224 938.068,709.224 Q939.076,709.224 939.846,709.63 Q940.615,710.037 941.053,710.748 Q941.49,711.459 941.49,712.388 L941.49,712.419 Q941.49,713.201 941.217,713.916 Q940.943,714.63 940.193,715.537 Q939.443,716.443 937.982,717.81 L930.014,725.263 z" fill="#929292"/>
    <path d="M958.537,728.88 Q961.397,728.88 963.455,727.459 Q965.514,726.037 966.619,723.423 Q967.725,720.81 967.725,717.224 L967.725,717.193 Q967.725,713.607 966.619,710.994 Q965.514,708.38 963.455,706.966 Q961.397,705.552 958.537,705.552 Q955.678,705.552 953.619,706.966 Q951.561,708.38 950.455,710.994 Q949.35,713.607 949.35,717.193 L949.35,717.224 Q949.35,720.81 950.455,723.423 Q951.561,726.037 953.619,727.459 Q955.678,728.88 958.537,728.88 z M958.537,725.107 Q957.131,725.107 956.143,724.169 Q955.154,723.232 954.639,721.466 Q954.123,719.701 954.123,717.224 L954.123,717.193 Q954.123,714.716 954.639,712.959 Q955.154,711.201 956.143,710.267 Q957.131,709.334 958.537,709.334 Q959.943,709.334 960.932,710.267 Q961.92,711.201 962.44,712.959 Q962.959,714.716 962.959,717.193 L962.959,717.224 Q962.959,719.701 962.44,721.466 Q961.92,723.232 960.932,724.169 Q959.943,725.107 958.537,725.107 z" fill="#929292"/>
    <path d="M970.873,728.49 L987.264,728.49 L987.264,724.74 L975.24,724.74 L977.037,726.193 L977.037,723.021 L975.232,726.193 L981.764,720.24 Q983.709,718.443 984.838,717.142 Q985.967,715.841 986.455,714.677 Q986.943,713.513 986.943,712.146 L986.943,712.115 Q986.943,710.193 985.928,708.712 Q984.912,707.232 983.104,706.392 Q981.295,705.552 978.904,705.552 Q976.522,705.552 974.643,706.474 Q972.764,707.396 971.686,709.029 Q970.607,710.662 970.607,712.787 L970.607,712.912 L974.982,712.912 L974.99,712.771 Q975.022,711.755 975.522,710.955 Q976.022,710.154 976.9,709.689 Q977.779,709.224 978.928,709.224 Q979.936,709.224 980.705,709.63 Q981.475,710.037 981.912,710.748 Q982.35,711.459 982.35,712.388 L982.35,712.419 Q982.35,713.201 982.076,713.916 Q981.803,714.63 981.053,715.537 Q980.303,716.443 978.842,717.81 L970.873,725.263 z" fill="#929292"/>
    <path d="M1000.928,728.49 L1005.412,728.49 L1005.412,724.357 L1008.389,724.357 L1008.389,720.584 L1005.412,720.584 L1005.412,705.943 L998.756,705.943 Q997.857,707.388 996.951,708.837 Q996.045,710.287 995.143,711.736 Q994.24,713.185 993.334,714.63 Q992.428,716.076 991.522,717.525 Q990.615,718.974 989.717,720.419 L989.717,724.357 L1000.928,724.357 z M993.818,720.716 L993.818,720.591 Q994.529,719.466 995.236,718.345 Q995.943,717.224 996.658,716.095 Q997.373,714.966 998.08,713.845 Q998.787,712.724 999.494,711.603 Q1000.201,710.482 1000.912,709.357 L1001.022,709.357 L1001.022,720.716 z" fill="#929292"/>
  </g>
</svg>
