<?xml version="1.0" encoding="UTF-8"?>
<!DOCTYPE svg PUBLIC "-//W3C//DTD SVG 1.1//EN" "http://www.w3.org/Graphics/SVG/1.1/DTD/svg11.dtd">
<svg version="1.1" xmlns="http://www.w3.org/2000/svg" xmlns:xlink="http://www.w3.org/1999/xlink" x="0" y="0" width="520.483" height="210.581" viewBox="0, 0, 520.483, 210.581">
  <defs>
    <linearGradient id="Gradient_1" gradientUnits="userSpaceOnUse" x1="843.345" y1="442.31" x2="843.345" y2="584.37">
      <stop offset="0" stop-color="#00A1FF"/>
      <stop offset="0.125" stop-color="#2B91EF"/>
      <stop offset="0.25" stop-color="#3D82E0"/>
      <stop offset="0.375" stop-color="#4B71CF"/>
      <stop offset="0.5" stop-color="#5561BF"/>
      <stop offset="0.625" stop-color="#5D51B0"/>
      <stop offset="0.75" stop-color="#643F9F"/>
      <stop offset="0.875" stop-color="#6A2F90"/>
      <stop offset="1" stop-color="#6F1B7F"/>
    </linearGradient>
  </defs>
  <g id="Layer_1" transform="translate(-694.145, -444.309)">
    <path d="M854.09,551.403 C856.652,551.403 858.86,551.894 860.714,552.875 C862.569,553.856 864.025,555.147 865.084,556.747 C866.142,558.348 866.757,560.082 866.926,561.949 L866.949,562.165 L861.081,562.165 L861.029,561.928 C860.712,560.466 859.984,559.203 858.844,558.139 C857.704,557.075 856.133,556.543 854.132,556.543 C852.56,556.543 851.187,556.964 850.01,557.805 C848.833,558.647 847.919,559.839 847.267,561.382 C846.616,562.926 846.29,564.757 846.29,566.878 L846.29,566.906 C846.29,569.077 846.619,570.93 847.277,572.467 C847.934,574.005 848.855,575.181 850.04,575.998 C851.224,576.815 852.603,577.223 854.178,577.223 C856.066,577.223 857.593,576.726 858.759,575.734 C859.924,574.741 860.689,573.443 861.052,571.838 L861.104,571.601 L866.996,571.601 L866.972,571.794 C866.757,573.788 866.088,575.582 864.966,577.177 C863.844,578.771 862.362,580.034 860.521,580.966 C858.679,581.897 856.556,582.363 854.152,582.363 C851.266,582.363 848.763,581.731 846.643,580.467 C844.524,579.202 842.889,577.409 841.739,575.088 C840.588,572.766 840.013,570.022 840.013,566.854 L840.013,566.826 C840.013,563.678 840.596,560.949 841.762,558.638 C842.927,556.328 844.565,554.544 846.675,553.288 C848.786,552.031 851.257,551.403 854.09,551.403 z M821.849,540.91 L821.849,581.776 L815.695,581.776 L815.695,576.724 L815.561,576.724 C814.982,577.896 814.232,578.9 813.314,579.735 C812.396,580.571 811.341,581.217 810.151,581.676 C808.961,582.134 807.649,582.363 806.215,582.363 C803.691,582.363 801.494,581.733 799.626,580.474 C797.758,579.215 796.312,577.427 795.289,575.109 C794.266,572.79 793.755,570.048 793.755,566.883 L793.755,566.854 C793.755,563.686 794.27,560.946 795.301,558.635 C796.331,556.325 797.777,554.542 799.637,553.286 C801.498,552.031 803.671,551.403 806.157,551.403 C807.571,551.403 808.88,551.63 810.082,552.084 C811.284,552.538 812.352,553.187 813.286,554.031 C814.22,554.875 814.978,555.88 815.561,557.048 L815.695,557.048 L815.695,540.91 L821.849,540.91 z M807.838,556.678 C806.236,556.678 804.85,557.091 803.68,557.916 C802.511,558.741 801.61,559.912 800.979,561.428 C800.348,562.944 800.032,564.753 800.032,566.854 L800.032,566.883 C800.032,568.981 800.347,570.796 800.976,572.328 C801.606,573.859 802.506,575.036 803.678,575.857 C804.849,576.677 806.236,577.088 807.838,577.088 C809.382,577.088 810.747,576.668 811.934,575.827 C813.121,574.987 814.049,573.801 814.717,572.269 C815.385,570.737 815.719,568.943 815.719,566.888 L815.719,566.86 C815.719,564.801 815.38,563.01 814.703,561.486 C814.025,559.962 813.098,558.779 811.92,557.939 C810.743,557.098 809.382,556.678 807.838,556.678 z M776.602,551.403 C779.387,551.403 781.789,552.026 783.807,553.271 C785.826,554.517 787.379,556.264 788.468,558.512 C789.556,560.761 790.101,563.378 790.101,566.365 L790.101,568.448 L769.016,568.448 C768.972,570.061 769.394,571.616 769.984,573.099 C770.639,574.468 771.569,575.516 772.775,576.245 C773.98,576.973 775.408,577.337 777.059,577.337 C778.263,577.337 779.329,577.153 780.255,576.784 C781.181,576.415 781.95,575.921 782.56,575.301 C783.171,574.682 783.601,573.998 783.849,573.249 L783.924,573.025 L789.774,573.025 L789.712,573.323 C789.47,574.497 789.011,575.626 788.334,576.709 C787.657,577.792 786.771,578.761 785.678,579.615 C784.584,580.47 783.304,581.141 781.838,581.63 C780.371,582.119 778.733,582.363 776.925,582.363 C774.008,582.363 771.497,581.735 769.393,580.478 C767.289,579.222 765.673,577.441 764.546,575.134 C763.419,572.828 762.855,570.108 762.855,566.976 L762.855,566.947 C762.855,563.842 763.422,561.122 764.555,558.789 C765.688,556.455 767.283,554.641 769.34,553.346 C771.397,552.051 773.818,551.403 776.602,551.403 z M776.636,556.429 C775.173,556.429 773.865,556.785 772.713,557.498 C771.56,558.211 770.654,559.263 769.993,560.655 C769.269,562.497 769.635,561.37 769.107,564.098 L784.017,564.098 C783.5,561.269 783.863,562.43 783.152,560.551 C782.515,559.167 781.636,558.134 780.514,557.452 C779.392,556.77 778.1,556.429 776.636,556.429 z M883.861,551.403 C886.29,551.403 888.394,551.809 890.172,552.621 C891.95,553.433 893.328,554.576 894.305,556.05 C895.282,557.524 895.771,559.256 895.771,561.247 L895.771,581.776 L889.617,581.776 L889.617,577.088 L889.483,577.088 C888.913,578.147 888.166,579.068 887.241,579.852 C886.316,580.635 885.271,581.241 884.107,581.669 C882.942,582.097 881.698,582.311 880.373,582.311 C878.4,582.311 876.667,581.934 875.171,581.18 C873.676,580.427 872.511,579.372 871.676,578.016 C870.841,576.66 870.423,575.093 870.423,573.315 L870.423,573.263 C870.423,571.52 870.859,570.02 871.73,568.761 C872.602,567.503 873.865,566.507 875.521,565.775 C877.177,565.042 879.177,564.604 881.521,564.461 L889.617,563.983 L889.617,561.744 C889.617,560.113 889.105,558.829 888.08,557.892 C887.055,556.955 885.594,556.486 883.695,556.486 C881.935,556.486 880.52,556.863 879.451,557.617 C878.382,558.37 877.719,559.346 877.464,560.543 L877.407,560.803 L871.621,560.803 L871.65,560.481 C871.804,558.764 872.382,557.221 873.384,555.853 C874.386,554.485 875.773,553.401 877.545,552.602 C879.317,551.803 881.422,551.403 883.861,551.403 z M889.617,568.299 L882.336,568.752 C880.508,568.858 879.097,569.294 878.105,570.059 C877.113,570.824 876.617,571.84 876.617,573.108 L876.617,573.159 C876.617,574.464 877.111,575.496 878.1,576.254 C879.089,577.012 880.407,577.391 882.053,577.391 C883.487,577.391 884.773,577.096 885.911,576.507 C887.049,575.918 887.952,575.111 888.618,574.085 C889.284,573.06 889.617,571.906 889.617,570.626 L889.617,568.299 z M972.364,540.91 L972.364,581.776 L965.999,581.776 L965.999,540.91 L972.364,540.91 z M946.383,540.91 L961.225,581.776 L954.538,581.776 L950.804,570.734 L935.067,570.734 L931.325,581.776 L924.639,581.776 L939.504,540.91 L946.383,540.91 z M943.01,547.691 L942.876,547.691 L936.793,565.642 L949.082,565.642 L943.01,547.691 z M908.352,540.91 L908.352,581.776 L902.199,581.776 L902.199,540.91 L908.352,540.91 z M834.774,551.99 L834.774,581.776 L828.621,581.776 L828.621,551.99 L834.774,551.99 z M723.156,540.91 L736.376,573.493 L736.552,573.493 L749.772,540.91 L757.127,540.91 L757.127,581.776 L751.32,581.776 L751.32,551.647 L751.112,551.647 L738.811,581.776 L734.117,581.776 L721.815,551.647 L721.608,551.647 L721.608,581.776 L715.801,581.776 L715.801,540.91 L723.156,540.91 z M831.697,540.339 C832.705,540.339 833.552,540.681 834.24,541.366 C834.928,542.05 835.272,542.886 835.272,543.872 C835.272,544.839 834.928,545.67 834.24,546.365 C833.552,547.059 832.705,547.406 831.697,547.406 C830.706,547.406 829.862,547.059 829.166,546.365 C828.47,545.67 828.122,544.839 828.122,543.872 C828.122,542.886 828.47,542.05 829.166,541.366 C829.862,540.681 830.706,540.339 831.697,540.339 z M733.278,491.92 C736.287,491.92 739,492.496 741.417,493.648 C743.835,494.8 745.825,496.397 747.387,498.439 C748.95,500.481 749.94,502.852 750.356,505.553 L750.402,505.831 L744.085,505.831 L743.918,505.26 C743.465,503.654 742.755,502.279 741.787,501.135 C740.819,499.991 739.62,499.109 738.191,498.487 C736.762,497.866 735.124,497.555 733.278,497.555 C730.757,497.555 728.565,498.188 726.703,499.453 C724.841,500.718 723.399,502.503 722.378,504.808 C721.356,507.113 720.846,509.842 720.846,512.995 L720.846,513.023 C720.846,516.165 721.356,518.898 722.378,521.223 C723.399,523.549 724.846,525.348 726.717,526.621 C728.588,527.893 730.777,528.53 733.283,528.53 C735.093,528.53 736.71,528.222 738.133,527.606 C739.556,526.99 740.767,526.087 741.767,524.896 C742.767,523.706 743.519,522.247 744.021,520.52 L744.095,520.254 L750.413,520.254 L750.367,520.543 C749.95,523.256 748.962,525.636 747.402,527.684 C745.842,529.731 743.852,531.324 741.432,532.46 C739.013,533.597 736.295,534.166 733.278,534.166 C729.429,534.166 726.082,533.304 723.237,531.581 C720.392,529.858 718.195,527.416 716.647,524.255 C715.098,521.095 714.324,517.352 714.324,513.028 L714.324,513 C714.324,508.676 715.099,504.939 716.649,501.788 C718.199,498.636 720.393,496.204 723.231,494.49 C726.068,492.777 729.417,491.92 733.278,491.92 z M913.12,492.61 L913.12,533.476 L906.967,533.476 L906.967,528.424 L906.833,528.424 C906.253,529.596 905.504,530.6 904.586,531.435 C903.667,532.271 902.613,532.917 901.423,533.376 C900.232,533.834 898.92,534.063 897.487,534.063 C894.962,534.063 892.766,533.433 890.897,532.174 C889.029,530.915 887.584,529.127 886.561,526.809 C885.538,524.49 885.027,521.748 885.027,518.583 L885.027,518.554 C885.027,515.386 885.542,512.646 886.572,510.335 C887.603,508.025 889.049,506.242 890.909,504.986 C892.769,503.731 894.942,503.103 897.428,503.103 C898.843,503.103 900.151,503.33 901.353,503.784 C902.556,504.238 903.624,504.887 904.557,505.731 C905.491,506.575 906.25,507.58 906.833,508.748 L906.967,508.748 L906.967,492.61 L913.12,492.61 z M899.11,508.378 C897.508,508.378 896.122,508.791 894.952,509.616 C893.782,510.441 892.882,511.612 892.25,513.128 C891.619,514.644 891.303,516.453 891.303,518.554 L891.303,518.583 C891.303,520.681 891.618,522.496 892.248,524.028 C892.877,525.559 893.778,526.736 894.949,527.557 C896.121,528.377 897.508,528.788 899.11,528.788 C900.653,528.788 902.019,528.368 903.206,527.527 C904.393,526.687 905.32,525.501 905.988,523.969 C906.656,522.437 906.99,520.643 906.99,518.588 L906.99,518.56 C906.99,516.501 906.652,514.71 905.974,513.186 C905.297,511.662 904.369,510.479 903.192,509.639 C902.014,508.798 900.653,508.378 899.11,508.378 z M867.874,503.103 C870.659,503.103 873.06,503.726 875.079,504.971 C877.097,506.217 878.651,507.964 879.739,510.212 C880.828,512.461 881.372,515.078 881.372,518.065 L881.372,520.148 L860.287,520.148 C860.244,521.761 860.666,523.316 861.256,524.799 C861.91,526.168 862.84,527.216 864.046,527.945 C865.252,528.673 866.68,529.037 868.33,529.037 C869.535,529.037 870.6,528.853 871.526,528.484 C872.453,528.115 873.221,527.621 873.832,527.001 C874.442,526.382 874.872,525.698 875.121,524.949 L875.195,524.725 L881.046,524.725 L880.984,525.023 C880.742,526.197 880.282,527.326 879.605,528.409 C878.928,529.492 878.043,530.461 876.949,531.315 C875.856,532.17 874.576,532.841 873.109,533.33 C871.643,533.819 870.005,534.063 868.196,534.063 C865.279,534.063 862.769,533.435 860.664,532.178 C858.56,530.922 856.945,529.141 855.817,526.834 C854.69,524.528 854.127,521.808 854.127,518.676 L854.127,518.647 C854.127,515.542 854.693,512.822 855.827,510.489 C856.96,508.155 858.555,506.341 860.612,505.046 C862.668,503.751 865.089,503.103 867.874,503.103 z M867.908,508.129 C866.445,508.129 865.137,508.485 863.984,509.198 C862.832,509.911 861.925,510.963 861.265,512.355 C860.541,514.197 860.907,513.07 860.379,515.798 L875.289,515.798 C874.771,512.969 875.135,514.13 874.424,512.251 C873.787,510.867 872.907,509.834 871.785,509.152 C870.664,508.47 869.371,508.129 867.908,508.129 z M826.502,495.935 L826.502,503.69 L832.089,503.69 L832.089,508.558 L826.502,508.558 L826.502,525.262 C826.502,526.774 826.832,527.807 827.493,528.363 C828.154,528.918 829.133,529.195 830.43,529.195 C830.756,529.195 831.058,529.181 831.336,529.153 C831.613,529.125 831.864,529.099 832.089,529.077 L832.089,533.823 C831.728,533.875 831.272,533.928 830.721,533.982 C830.171,534.036 829.582,534.063 828.957,534.063 C826.011,534.063 823.817,533.398 822.374,532.067 C820.931,530.736 820.21,528.585 820.21,525.612 L820.21,508.558 L815.937,508.558 L815.937,503.69 L820.21,503.69 L820.21,495.935 L826.502,495.935 z M768.108,503.103 C770.893,503.103 773.295,503.726 775.313,504.971 C777.331,506.217 778.885,507.964 779.974,510.212 C781.062,512.461 781.606,515.078 781.606,518.065 L781.606,520.148 L760.521,520.148 C760.478,521.761 760.9,523.316 761.49,524.799 C762.144,526.168 763.074,527.216 764.28,527.945 C765.486,528.673 766.914,529.037 768.564,529.037 C769.769,529.037 770.834,528.853 771.761,528.484 C772.687,528.115 773.455,527.621 774.066,527.001 C774.677,526.382 775.106,525.698 775.355,524.949 L775.429,524.725 L781.28,524.725 L781.218,525.023 C780.976,526.197 780.516,527.326 779.839,528.409 C779.162,529.492 778.277,530.461 777.184,531.315 C776.09,532.17 774.81,532.841 773.343,533.33 C771.877,533.819 770.239,534.063 768.43,534.063 C765.513,534.063 763.003,533.435 760.899,532.178 C758.795,530.922 757.179,529.141 756.052,526.834 C754.924,524.528 754.361,521.808 754.361,518.676 L754.361,518.647 C754.361,515.542 754.928,512.822 756.061,510.489 C757.194,508.155 758.789,506.341 760.846,505.046 C762.903,503.751 765.323,503.103 768.108,503.103 z M768.142,508.129 C766.679,508.129 765.371,508.485 764.219,509.198 C763.066,509.911 762.16,510.963 761.499,512.355 C760.775,514.197 761.141,513.07 760.613,515.798 L775.523,515.798 C775.005,512.969 775.369,514.13 774.658,512.251 C774.021,510.867 773.141,509.834 772.02,509.152 C770.898,508.47 769.605,508.129 768.142,508.129 z M850.531,503.103 C850.976,503.103 851.384,503.129 851.756,503.182 C852.128,503.234 852.43,503.29 852.664,503.348 L852.664,509.048 C852.42,508.948 852.049,508.865 851.55,508.798 C851.051,508.731 850.499,508.697 849.895,508.697 C848.596,508.697 847.467,508.974 846.508,509.526 C845.549,510.079 844.813,510.88 844.299,511.929 C843.785,512.979 843.528,514.246 843.528,515.73 L843.528,533.476 L837.375,533.476 L837.375,503.69 L843.528,503.69 L843.528,508.789 L843.662,508.789 C844.136,507.027 844.974,505.639 846.177,504.625 C847.38,503.61 848.832,503.103 850.531,503.103 z M802.008,503.103 C805.275,503.103 807.807,504.091 809.605,506.068 C811.403,508.045 812.302,510.75 812.302,514.183 L812.302,533.476 L806.149,533.476 L806.149,515.367 C806.149,513.122 805.623,511.396 804.571,510.189 C803.518,508.982 801.933,508.378 799.817,508.378 C798.386,508.378 797.14,508.699 796.078,509.342 C795.017,509.984 794.195,510.883 793.613,512.039 C793.03,513.196 792.739,514.55 792.739,516.102 L792.739,533.476 L786.586,533.476 L786.586,503.69 L792.739,503.69 L792.739,508.178 L792.873,508.178 C793.663,506.664 794.819,505.44 796.344,504.505 C797.868,503.571 799.756,503.103 802.008,503.103 z M762.551,455.39 L762.551,473.499 C762.551,475.744 763.077,477.47 764.129,478.677 C765.182,479.884 766.766,480.488 768.883,480.488 C769.963,480.488 770.935,480.303 771.799,479.934 C772.663,479.566 773.408,479.043 774.034,478.366 C774.66,477.69 775.137,476.875 775.467,475.922 C775.796,474.969 775.961,473.917 775.961,472.764 L775.961,455.39 L782.114,455.39 L782.114,485.176 L775.961,485.176 L775.961,480.688 L775.827,480.688 C775.301,481.685 774.615,482.565 773.768,483.329 C772.921,484.093 771.907,484.69 770.726,485.119 C769.545,485.548 768.2,485.763 766.691,485.763 C764.515,485.763 762.659,485.315 761.123,484.419 C759.588,483.523 758.416,482.245 757.609,480.586 C756.801,478.927 756.398,476.959 756.398,474.683 L756.398,455.39 L762.551,455.39 z M848.824,454.803 C851.254,454.803 853.358,455.209 855.136,456.021 C856.914,456.833 858.291,457.976 859.268,459.45 C860.246,460.924 860.734,462.656 860.734,464.647 L860.734,485.176 L854.581,485.176 L854.581,480.488 L854.447,480.488 C853.877,481.547 853.13,482.468 852.205,483.251 C851.28,484.035 850.235,484.641 849.07,485.069 C847.906,485.497 846.661,485.711 845.336,485.711 C843.364,485.711 841.63,485.334 840.135,484.581 C838.64,483.827 837.474,482.772 836.639,481.416 C835.804,480.06 835.387,478.493 835.387,476.715 L835.387,476.663 C835.387,474.92 835.822,473.42 836.694,472.161 C837.565,470.903 838.829,469.907 840.485,469.174 C842.14,468.442 844.14,468.004 846.484,467.861 L854.581,467.383 L854.581,465.144 C854.581,463.513 854.068,462.229 853.044,461.292 C852.019,460.355 850.557,459.886 848.659,459.886 C846.899,459.886 845.484,460.263 844.414,461.017 C843.345,461.77 842.683,462.746 842.427,463.943 L842.371,464.203 L836.585,464.203 L836.613,463.881 C836.767,462.164 837.346,460.621 838.348,459.253 C839.35,457.885 840.737,456.801 842.509,456.002 C844.281,455.203 846.386,454.803 848.824,454.803 z M854.581,471.699 L847.3,472.151 C845.471,472.258 844.061,472.694 843.069,473.459 C842.076,474.224 841.58,475.24 841.58,476.508 L841.58,476.559 C841.58,477.864 842.075,478.896 843.064,479.654 C844.052,480.412 845.37,480.791 847.017,480.791 C848.451,480.791 849.737,480.496 850.875,479.907 C852.013,479.318 852.915,478.511 853.581,477.485 C854.247,476.46 854.581,475.306 854.581,474.025 L854.581,471.699 z M882.35,454.803 C885.617,454.803 888.149,455.791 889.947,457.768 C891.745,459.745 892.644,462.45 892.644,465.883 L892.644,485.176 L886.491,485.176 L886.491,467.067 C886.491,464.822 885.965,463.096 884.913,461.889 C883.86,460.682 882.276,460.078 880.159,460.078 C878.728,460.078 877.482,460.399 876.421,461.042 C875.359,461.684 874.537,462.583 873.955,463.739 C873.372,464.896 873.081,466.25 873.081,467.802 L873.081,485.176 L866.928,485.176 L866.928,455.39 L873.081,455.39 L873.081,459.878 L873.215,459.878 C874.005,458.364 875.162,457.14 876.686,456.205 C878.21,455.271 880.098,454.803 882.35,454.803 z M820.672,454.803 C822.634,454.803 824.342,455.214 825.796,456.035 C827.25,456.857 828.38,458.005 829.187,459.481 C829.994,460.956 830.397,462.691 830.397,464.686 L830.397,485.176 L824.244,485.176 L824.244,466.167 C824.244,464.873 824.022,463.773 823.577,462.867 C823.131,461.962 822.488,461.27 821.646,460.794 C820.804,460.317 819.773,460.078 818.553,460.078 C817.347,460.078 816.284,460.354 815.363,460.905 C814.442,461.457 813.723,462.22 813.207,463.195 C812.691,464.171 812.433,465.29 812.433,466.555 L812.433,485.176 L806.388,485.176 L806.388,465.732 C806.388,464.578 806.158,463.577 805.698,462.731 C805.237,461.886 804.59,461.232 803.755,460.77 C802.921,460.309 801.926,460.078 800.772,460.078 C799.566,460.078 798.498,460.369 797.57,460.952 C796.641,461.534 795.91,462.325 795.377,463.325 C794.843,464.325 794.577,465.471 794.577,466.763 L794.577,485.176 L788.424,485.176 L788.424,455.39 L794.577,455.39 L794.577,459.991 L794.711,459.991 C795.354,458.433 796.4,457.179 797.849,456.229 C799.298,455.278 800.993,454.803 802.932,454.803 C804.304,454.803 805.542,455.034 806.644,455.495 C807.747,455.955 808.693,456.622 809.48,457.496 C810.268,458.369 810.854,459.434 811.238,460.691 L811.372,460.691 C811.885,459.466 812.599,458.417 813.513,457.542 C814.427,456.668 815.494,455.992 816.716,455.517 C817.937,455.041 819.256,454.803 820.672,454.803 z M722.166,444.309 L722.166,461.592 L743.121,461.592 L743.121,444.309 L749.485,444.309 L749.485,485.176 L743.121,485.176 L743.121,467.083 L722.166,467.083 L722.166,485.176 L715.801,485.176 L715.801,444.309 L722.166,444.309 z" fill="url(#Gradient_1)"/>
    <path d="M715.776,638.89 L731.21,638.89 Q737.546,638.89 742.031,636.376 Q746.517,633.862 748.904,629.097 Q751.291,624.333 751.291,617.645 L751.291,617.586 Q751.291,610.899 748.894,606.22 Q746.497,601.541 742.011,599.078 Q737.526,596.615 731.21,596.615 L715.776,596.615 z M723.313,632.521 L723.313,602.984 L730.413,602.984 Q734.633,602.984 737.578,604.67 Q740.523,606.356 742.061,609.628 Q743.599,612.9 743.599,617.627 L743.599,617.685 Q743.599,622.503 742.08,625.807 Q740.56,629.111 737.62,630.816 Q734.679,632.521 730.413,632.521 z" fill="#A9A9A9"/>
    <path d="M770.744,639.513 Q773.782,639.513 776.157,638.704 Q778.532,637.895 780.248,636.511 Q781.965,635.127 783.001,633.416 Q784.038,631.706 784.41,629.924 L784.478,629.603 L777.668,629.603 L777.599,629.811 Q777.252,630.861 776.362,631.775 Q775.471,632.688 774.096,633.251 Q772.72,633.814 770.898,633.814 Q768.478,633.814 766.717,632.747 Q764.955,631.68 764,629.672 Q763.045,627.665 763.045,624.842 L763.045,622.016 Q763.045,619.072 764.005,617.035 Q764.966,614.999 766.649,613.951 Q768.332,612.904 770.485,612.904 Q772.639,612.904 774.282,613.911 Q775.925,614.919 776.855,616.946 Q777.785,618.973 777.785,622.016 L777.785,624.823 L781.3,620.279 L759.408,620.279 L759.408,625.153 L784.784,625.153 L784.784,622.796 Q784.784,618.114 783.039,614.602 Q781.293,611.089 778.067,609.147 Q774.842,607.205 770.403,607.205 Q765.965,607.205 762.689,609.216 Q759.413,611.228 757.612,614.872 Q755.811,618.517 755.811,623.41 L755.811,623.439 Q755.811,628.363 757.607,631.977 Q759.403,635.59 762.752,637.552 Q766.1,639.513 770.744,639.513 z" fill="#A9A9A9"/>
    <path d="M802.124,639.513 Q805.931,639.513 808.876,638.286 Q811.821,637.06 813.494,634.856 Q815.166,632.652 815.166,629.726 L815.166,629.697 Q815.166,626.315 813.115,624.307 Q811.064,622.298 806.24,621.231 L801.081,620.087 Q799.477,619.714 798.496,619.192 Q797.515,618.669 797.083,617.964 Q796.651,617.259 796.651,616.382 L796.651,616.353 Q796.651,615.209 797.285,614.365 Q797.919,613.521 799.1,613.058 Q800.281,612.594 801.885,612.594 Q804.44,612.594 805.909,613.803 Q807.379,615.011 807.616,616.894 L807.645,617.118 L814.42,617.118 L814.4,616.793 Q814.28,614.114 812.771,611.943 Q811.262,609.773 808.508,608.489 Q805.754,607.205 801.885,607.205 Q798.159,607.205 795.351,608.394 Q792.543,609.583 790.997,611.72 Q789.451,613.857 789.451,616.726 L789.451,616.756 Q789.451,619.046 790.444,620.788 Q791.437,622.531 793.424,623.714 Q795.411,624.898 798.384,625.564 L803.543,626.708 Q805.956,627.269 806.896,628.121 Q807.836,628.974 807.836,630.373 L807.836,630.402 Q807.836,631.548 807.152,632.387 Q806.468,633.226 805.202,633.675 Q803.937,634.124 802.144,634.124 Q799.382,634.124 797.844,633.003 Q796.306,631.881 795.874,629.875 L795.815,629.6 L788.658,629.6 L788.687,629.864 Q789.029,632.746 790.662,634.918 Q792.296,637.089 795.182,638.301 Q798.068,639.513 802.124,639.513 z" fill="#A9A9A9"/>
    <path d="M820.481,638.89 L827.768,638.89 L827.768,607.828 L820.481,607.828 z M824.125,603.386 Q825.843,603.386 827.016,602.207 Q828.19,601.029 828.19,599.395 Q828.19,597.732 827.016,596.568 Q825.843,595.404 824.125,595.404 Q822.426,595.404 821.242,596.568 Q820.059,597.732 820.059,599.395 Q820.059,601.029 821.242,602.207 Q822.426,603.386 824.125,603.386 z" fill="#A9A9A9"/>
    <path d="M848.494,649.767 Q852.996,649.767 856.283,648.294 Q859.57,646.821 861.354,644.18 Q863.138,641.539 863.138,638.022 L863.138,607.828 L855.851,607.828 L855.851,613.123 L855.688,613.123 Q854.806,611.331 853.403,610.005 Q852.001,608.679 850.166,607.942 Q848.331,607.205 846.126,607.205 Q842.194,607.205 839.297,609.124 Q836.399,611.044 834.8,614.587 Q833.201,618.13 833.201,623.052 L833.201,623.081 Q833.201,627.902 834.771,631.409 Q836.341,634.916 839.224,636.818 Q842.106,638.72 846,638.72 Q848.243,638.72 850.122,638.05 Q852.001,637.38 853.423,636.172 Q854.844,634.965 855.697,633.294 L855.851,633.294 L855.851,637.775 Q855.851,640.735 853.951,642.494 Q852.05,644.253 848.482,644.253 Q845.646,644.253 843.82,643.352 Q841.994,642.451 841.401,641.117 L841.302,640.89 L834.143,640.89 L834.193,641.154 Q834.636,643.577 836.461,645.533 Q838.286,647.489 841.339,648.628 Q844.391,649.767 848.494,649.767 z M848.282,633.095 Q845.948,633.095 844.216,631.894 Q842.483,630.694 841.553,628.477 Q840.623,626.26 840.623,623.202 L840.623,623.172 Q840.623,620.136 841.558,617.938 Q842.493,615.74 844.22,614.545 Q845.948,613.349 848.282,613.349 Q850.545,613.349 852.252,614.555 Q853.96,615.76 854.915,617.962 Q855.87,620.165 855.87,623.182 L855.87,623.211 Q855.87,626.218 854.92,628.441 Q853.969,630.664 852.267,631.879 Q850.564,633.095 848.282,633.095 z" fill="#A9A9A9"/>
    <path d="M869.629,638.89 L876.916,638.89 L876.916,620.886 Q876.916,618.622 877.763,616.93 Q878.61,615.238 880.156,614.294 Q881.702,613.349 883.789,613.349 Q886.906,613.349 888.459,615.146 Q890.012,616.942 890.012,620.255 L890.012,638.89 L897.299,638.89 L897.299,618.799 Q897.299,613.39 894.493,610.297 Q891.688,607.205 886.576,607.205 Q883.054,607.205 880.673,608.698 Q878.292,610.192 877.071,612.692 L876.916,612.692 L876.916,607.828 L869.629,607.828 z" fill="#A9A9A9"/>
    <text transform="matrix(1, 0, -0, 1, 929.073, 618.39)">
      <tspan x="-30" y="20.5" font-family="SFPro-Semibold" font-size="60" kerning="0" fill="#D5D5D5"> </tspan>
    </text>
    <path d="M918.862,638.89 L932.804,638.89 Q937.325,638.89 940.565,637.437 Q943.804,635.984 945.56,633.304 Q947.316,630.625 947.316,626.923 L947.316,626.864 Q947.316,624.071 946.06,621.859 Q944.805,619.647 942.547,618.268 Q940.29,616.89 937.308,616.631 L937.308,616.477 Q939.589,616.155 941.396,614.829 Q943.203,613.504 944.246,611.521 Q945.288,609.538 945.288,607.257 L945.288,607.199 Q945.288,603.979 943.728,601.601 Q942.167,599.224 939.327,597.919 Q936.486,596.615 932.621,596.615 L918.862,596.615 L918.862,602.488 L930.734,602.488 Q934.108,602.488 935.965,603.972 Q937.823,605.456 937.823,608.201 L937.823,608.26 Q937.823,611.251 935.677,612.868 Q933.53,614.485 929.446,614.485 L918.862,614.485 L918.862,619.954 L930.652,619.954 Q933.604,619.954 935.596,620.681 Q937.588,621.409 938.596,622.855 Q939.604,624.3 939.604,626.437 L939.604,626.495 Q939.604,629.683 937.416,631.35 Q935.228,633.017 931.076,633.017 L918.862,633.017 z M915.093,638.89 L922.63,638.89 L922.63,596.615 L915.093,596.615 z" fill="#EBEBEB"/>
    <path d="M966.21,639.513 Q970.771,639.513 974.14,637.571 Q977.508,635.628 979.369,632.013 Q981.229,628.399 981.229,623.368 L981.229,623.31 Q981.229,618.298 979.355,614.694 Q977.48,611.089 974.102,609.147 Q970.724,607.205 966.19,607.205 Q961.685,607.205 958.307,609.152 Q954.928,611.099 953.054,614.708 Q951.18,618.317 951.18,623.31 L951.18,623.368 Q951.18,628.37 953.035,631.994 Q954.891,635.618 958.27,637.566 Q961.648,639.513 966.21,639.513 z M966.239,633.61 Q963.915,633.61 962.2,632.407 Q960.486,631.204 959.544,628.911 Q958.602,626.618 958.602,623.368 L958.602,623.31 Q958.602,620.069 959.549,617.797 Q960.495,615.524 962.209,614.316 Q963.924,613.108 966.19,613.108 Q968.495,613.108 970.21,614.306 Q971.925,615.504 972.866,617.786 Q973.806,620.069 973.806,623.31 L973.806,623.368 Q973.806,626.618 972.875,628.911 Q971.943,631.204 970.249,632.407 Q968.554,633.61 966.239,633.61 z" fill="#EBEBEB"/>
    <path d="M1000.227,639.513 Q1004.789,639.513 1008.157,637.571 Q1011.525,635.628 1013.386,632.013 Q1015.246,628.399 1015.246,623.368 L1015.246,623.31 Q1015.246,618.298 1013.372,614.694 Q1011.497,611.089 1008.119,609.147 Q1004.741,607.205 1000.207,607.205 Q995.702,607.205 992.324,609.152 Q988.945,611.099 987.071,614.708 Q985.197,618.317 985.197,623.31 L985.197,623.368 Q985.197,628.37 987.052,631.994 Q988.908,635.618 992.287,637.566 Q995.665,639.513 1000.227,639.513 z M1000.256,633.61 Q997.932,633.61 996.217,632.407 Q994.503,631.204 993.561,628.911 Q992.619,626.618 992.619,623.368 L992.619,623.31 Q992.619,620.069 993.566,617.797 Q994.512,615.524 996.226,614.316 Q997.941,613.108 1000.207,613.108 Q1002.513,613.108 1004.227,614.306 Q1005.942,615.504 1006.883,617.786 Q1007.823,620.069 1007.823,623.31 L1007.823,623.368 Q1007.823,626.618 1006.892,628.911 Q1005.96,631.204 1004.266,632.407 Q1002.571,633.61 1000.256,633.61 z" fill="#EBEBEB"/>
    <path d="M1032.029,639.513 Q1033.153,639.513 1034.086,639.422 Q1035.018,639.33 1035.645,639.234 L1035.645,633.758 Q1035.276,633.797 1034.842,633.841 Q1034.408,633.885 1033.874,633.885 Q1031.888,633.885 1030.885,633.025 Q1029.881,632.165 1029.881,629.882 L1029.881,613.456 L1035.645,613.456 L1035.645,607.828 L1029.881,607.828 L1029.881,599.957 L1022.474,599.957 L1022.474,607.828 L1018.076,607.828 L1018.076,613.456 L1022.474,613.456 L1022.474,630.487 Q1022.474,635.279 1024.828,637.396 Q1027.181,639.513 1032.029,639.513 z" fill="#EBEBEB"/>
    <path d="M1053.708,639.513 Q1057.638,639.513 1060.603,638.007 Q1063.568,636.501 1065.329,633.921 Q1067.089,631.342 1067.369,628.108 L1067.389,627.912 L1060.506,627.912 L1060.456,628.165 Q1059.951,630.612 1058.244,632.111 Q1056.537,633.61 1053.755,633.61 Q1051.452,633.61 1049.737,632.401 Q1048.022,631.193 1047.08,628.905 Q1046.138,626.618 1046.138,623.379 L1046.138,623.35 Q1046.138,620.18 1047.075,617.887 Q1048.012,615.594 1049.716,614.351 Q1051.421,613.108 1053.714,613.108 Q1056.629,613.108 1058.31,614.702 Q1059.991,616.296 1060.436,618.553 L1060.485,618.806 L1067.349,618.806 L1067.329,618.59 Q1067.109,615.482 1065.412,612.897 Q1063.714,610.312 1060.725,608.758 Q1057.736,607.205 1053.64,607.205 Q1049.115,607.205 1045.761,609.166 Q1042.407,611.128 1040.561,614.742 Q1038.715,618.357 1038.715,623.3 L1038.715,623.33 Q1038.715,628.303 1040.541,631.937 Q1042.367,635.571 1045.736,637.542 Q1049.104,639.513 1053.708,639.513 z" fill="#EBEBEB"/>
    <path d="M1081.715,639.42 Q1083.776,639.42 1085.565,638.774 Q1087.354,638.127 1088.768,636.933 Q1090.182,635.739 1091.07,634.115 L1091.224,634.115 L1091.224,638.89 L1098.511,638.89 L1098.511,617.529 Q1098.511,614.408 1096.936,612.088 Q1095.362,609.768 1092.503,608.486 Q1089.645,607.205 1085.754,607.205 Q1081.817,607.205 1078.964,608.462 Q1076.111,609.72 1074.501,611.896 Q1072.892,614.072 1072.648,616.842 L1072.619,617.183 L1079.378,617.183 L1079.436,616.91 Q1079.802,615.193 1081.358,614.099 Q1082.914,613.006 1085.5,613.006 Q1088.267,613.006 1089.745,614.357 Q1091.224,615.708 1091.224,618.055 L1091.224,627.383 Q1091.224,629.218 1090.259,630.689 Q1089.293,632.159 1087.638,633.003 Q1085.984,633.846 1083.888,633.846 Q1081.477,633.846 1080.031,632.752 Q1078.584,631.658 1078.584,629.757 L1078.584,629.708 Q1078.584,627.866 1080.018,626.754 Q1081.452,625.641 1084.137,625.484 L1094.998,624.793 L1094.998,619.975 L1083.106,620.694 Q1079.36,620.926 1076.722,622.081 Q1074.084,623.237 1072.697,625.224 Q1071.31,627.212 1071.31,629.986 L1071.31,630.036 Q1071.31,632.799 1072.621,634.921 Q1073.933,637.043 1076.278,638.232 Q1078.623,639.42 1081.715,639.42 z" fill="#EBEBEB"/>
    <path d="M1104.88,638.89 L1112.167,638.89 L1112.167,619.882 Q1112.167,617.975 1112.936,616.509 Q1113.705,615.043 1115.054,614.196 Q1116.404,613.349 1118.165,613.349 Q1119.875,613.349 1121.1,614.032 Q1122.324,614.715 1122.994,615.981 Q1123.664,617.246 1123.664,618.999 L1123.664,638.89 L1130.756,638.89 L1130.756,619.701 Q1130.756,617.825 1131.5,616.394 Q1132.244,614.963 1133.584,614.156 Q1134.923,613.349 1136.685,613.349 Q1138.484,613.349 1139.719,614.052 Q1140.953,614.755 1141.603,616.096 Q1142.252,617.437 1142.252,619.37 L1142.252,638.89 L1149.54,638.89 L1149.54,617.577 Q1149.54,614.447 1148.272,612.122 Q1147.005,609.797 1144.727,608.501 Q1142.449,607.205 1139.385,607.205 Q1137.144,607.205 1135.224,607.968 Q1133.303,608.731 1131.887,610.128 Q1130.471,611.525 1129.714,613.463 L1129.56,613.463 Q1128.998,611.458 1127.782,610.067 Q1126.565,608.675 1124.834,607.94 Q1123.103,607.205 1120.94,607.205 Q1117.871,607.205 1115.586,608.74 Q1113.3,610.275 1112.321,612.81 L1112.167,612.81 L1112.167,607.828 L1104.88,607.828 z" fill="#EBEBEB"/>
    <path d="M1155.931,649.144 L1163.218,649.144 L1163.218,633.635 L1163.372,633.635 Q1164.274,635.458 1165.701,636.774 Q1167.128,638.09 1169.017,638.802 Q1170.906,639.513 1173.11,639.513 Q1177.013,639.513 1179.87,637.556 Q1182.728,635.599 1184.299,631.984 Q1185.869,628.37 1185.869,623.379 L1185.869,623.35 Q1185.869,618.35 1184.299,614.726 Q1182.73,611.101 1179.843,609.153 Q1176.955,607.205 1173.003,607.205 Q1170.798,607.205 1168.943,607.931 Q1167.088,608.657 1165.686,609.992 Q1164.284,611.327 1163.381,613.197 L1163.218,613.197 L1163.218,607.828 L1155.931,607.828 z M1170.848,633.369 Q1168.585,633.369 1166.867,632.139 Q1165.149,630.909 1164.164,628.667 Q1163.18,626.425 1163.18,623.388 L1163.18,623.359 Q1163.18,620.293 1164.154,618.051 Q1165.129,615.809 1166.862,614.579 Q1168.594,613.349 1170.848,613.349 Q1173.181,613.349 1174.889,614.549 Q1176.597,615.749 1177.521,617.991 Q1178.446,620.233 1178.446,623.35 L1178.446,623.379 Q1178.446,626.446 1177.526,628.688 Q1176.606,630.93 1174.898,632.149 Q1173.19,633.369 1170.848,633.369 z" fill="#EBEBEB"/>
  </g>
</svg>
