<?xml version="1.0" encoding="UTF-8"?>
<!DOCTYPE svg PUBLIC "-//W3C//DTD SVG 1.1//EN" "http://www.w3.org/Graphics/SVG/1.1/DTD/svg11.dtd">
<svg version="1.1" xmlns="http://www.w3.org/2000/svg" xmlns:xlink="http://www.w3.org/1999/xlink" x="0" y="0" width="549.703" height="29.461" viewBox="0, 0, 549.703, 29.461">
  <g id="Layer_1" transform="translate(-225.223, -486.852)">
    <path d="M225.223,510.5 L229.426,510.5 L229.426,495.258 L231.605,495.258 L226.887,488.578 L235.645,510.5 L238.605,510.5 L247.363,488.578 L242.645,495.258 L244.824,495.258 L244.824,510.5 L249.027,510.5 L249.027,487.953 L243.574,487.953 L237.176,504.164 L237.074,504.164 L230.676,487.953 L225.223,487.953 z" fill="#FFFFFF"/>
    <path d="M260.473,510.844 Q263.012,510.844 264.871,509.805 Q266.73,508.766 267.75,506.816 Q268.77,504.867 268.77,502.133 L268.77,502.102 Q268.77,499.383 267.738,497.438 Q266.707,495.492 264.844,494.449 Q262.98,493.406 260.465,493.406 Q257.965,493.406 256.102,494.453 Q254.238,495.5 253.207,497.449 Q252.176,499.398 252.176,502.102 L252.176,502.133 Q252.176,504.852 253.191,506.805 Q254.207,508.758 256.07,509.801 Q257.934,510.844 260.473,510.844 z M260.488,507.266 Q259.363,507.266 258.539,506.664 Q257.715,506.062 257.266,504.914 Q256.816,503.766 256.816,502.133 L256.816,502.102 Q256.816,500.477 257.27,499.336 Q257.723,498.195 258.547,497.59 Q259.371,496.984 260.465,496.984 Q261.574,496.984 262.398,497.586 Q263.223,498.188 263.676,499.332 Q264.129,500.477 264.129,502.102 L264.129,502.133 Q264.129,503.766 263.684,504.914 Q263.238,506.062 262.422,506.664 Q261.605,507.266 260.488,507.266 z" fill="#FFFFFF"/>
    <path d="M271.527,510.5 L276.09,510.5 L276.09,501.125 Q276.09,499.906 276.508,499.062 Q276.926,498.219 277.727,497.781 Q278.527,497.344 279.652,497.344 Q280.152,497.344 280.59,497.414 Q281.027,497.484 281.309,497.602 L281.309,493.586 Q281.051,493.508 280.711,493.457 Q280.371,493.406 279.988,493.406 Q278.527,493.406 277.539,494.266 Q276.551,495.125 276.184,496.672 L276.09,496.672 L276.09,493.75 L271.527,493.75 z" fill="#FFFFFF"/>
    <path d="M290.652,510.844 Q292.441,510.844 293.781,510.375 Q295.121,509.906 296.051,509.125 Q296.98,508.344 297.523,507.41 Q298.066,506.477 298.262,505.555 L298.301,505.375 L294.113,505.375 L294.082,505.469 Q293.926,505.945 293.492,506.398 Q293.059,506.852 292.371,507.145 Q291.684,507.438 290.746,507.438 Q289.559,507.438 288.699,506.914 Q287.84,506.391 287.375,505.406 Q286.91,504.422 286.91,503.039 L286.91,501.266 Q286.91,499.836 287.375,498.84 Q287.84,497.844 288.66,497.328 Q289.48,496.812 290.543,496.812 Q291.605,496.812 292.41,497.312 Q293.215,497.812 293.668,498.805 Q294.121,499.797 294.121,501.266 L294.121,503.023 L296.285,500.336 L284.652,500.336 L284.652,503.211 L298.441,503.211 L298.441,501.805 Q298.441,499.273 297.469,497.383 Q296.496,495.492 294.707,494.449 Q292.918,493.406 290.465,493.406 Q288.012,493.406 286.203,494.48 Q284.395,495.555 283.402,497.516 Q282.41,499.477 282.41,502.141 L282.41,502.156 Q282.41,504.828 283.402,506.781 Q284.395,508.734 286.242,509.789 Q288.09,510.844 290.652,510.844 z" fill="#FFFFFF"/>
    <path d="M314.809,510.844 Q316.965,510.844 318.617,510.168 Q320.27,509.492 321.203,508.27 Q322.137,507.047 322.137,505.406 L322.137,505.391 Q322.137,503.547 320.988,502.457 Q319.84,501.367 317.207,500.812 L314.355,500.211 Q313.52,500.023 313.02,499.773 Q312.52,499.523 312.305,499.188 Q312.09,498.852 312.09,498.43 L312.09,498.414 Q312.09,497.867 312.402,497.469 Q312.715,497.07 313.293,496.852 Q313.871,496.633 314.652,496.633 Q315.926,496.633 316.652,497.234 Q317.379,497.836 317.488,498.734 L317.504,498.859 L321.707,498.859 L321.699,498.703 Q321.652,497.234 320.82,496.035 Q319.988,494.836 318.434,494.121 Q316.879,493.406 314.652,493.406 Q312.527,493.406 310.945,494.055 Q309.363,494.703 308.5,495.879 Q307.637,497.055 307.637,498.656 L307.637,498.672 Q307.637,499.922 308.184,500.883 Q308.73,501.844 309.82,502.492 Q310.91,503.141 312.527,503.484 L315.379,504.086 Q316.605,504.359 317.09,504.77 Q317.574,505.18 317.574,505.852 L317.574,505.867 Q317.574,506.406 317.242,506.801 Q316.91,507.195 316.297,507.406 Q315.684,507.617 314.816,507.617 Q313.449,507.617 312.688,507.066 Q311.926,506.516 311.707,505.531 L311.676,505.391 L307.223,505.391 L307.238,505.531 Q307.426,507.117 308.336,508.312 Q309.246,509.508 310.871,510.176 Q312.496,510.844 314.809,510.844 z" fill="#FFFFFF"/>
    <path d="M324.801,515.969 L329.363,515.969 L329.363,507.648 L329.457,507.648 Q329.918,508.641 330.672,509.355 Q331.426,510.07 332.438,510.457 Q333.449,510.844 334.645,510.844 Q336.746,510.844 338.262,509.797 Q339.777,508.75 340.598,506.801 Q341.418,504.852 341.418,502.133 L341.418,502.117 Q341.418,499.391 340.594,497.438 Q339.77,495.484 338.238,494.445 Q336.707,493.406 334.582,493.406 Q333.395,493.406 332.402,493.801 Q331.41,494.195 330.668,494.926 Q329.926,495.656 329.465,496.68 L329.363,496.68 L329.363,493.75 L324.801,493.75 z M333.074,507.062 Q331.965,507.062 331.129,506.461 Q330.293,505.859 329.816,504.754 Q329.34,503.648 329.34,502.141 L329.34,502.125 Q329.34,500.602 329.812,499.496 Q330.285,498.391 331.129,497.789 Q331.973,497.188 333.074,497.188 Q334.207,497.188 335.039,497.777 Q335.871,498.367 336.324,499.473 Q336.777,500.578 336.777,502.117 L336.777,502.133 Q336.777,503.648 336.328,504.754 Q335.879,505.859 335.047,506.461 Q334.215,507.062 333.074,507.062 z" fill="#FFFFFF"/>
    <path d="M351.816,510.844 Q353.605,510.844 354.945,510.375 Q356.285,509.906 357.215,509.125 Q358.145,508.344 358.688,507.41 Q359.23,506.477 359.426,505.555 L359.465,505.375 L355.277,505.375 L355.246,505.469 Q355.09,505.945 354.656,506.398 Q354.223,506.852 353.535,507.145 Q352.848,507.438 351.91,507.438 Q350.723,507.438 349.863,506.914 Q349.004,506.391 348.539,505.406 Q348.074,504.422 348.074,503.039 L348.074,501.266 Q348.074,499.836 348.539,498.84 Q349.004,497.844 349.824,497.328 Q350.645,496.812 351.707,496.812 Q352.77,496.812 353.574,497.312 Q354.379,497.812 354.832,498.805 Q355.285,499.797 355.285,501.266 L355.285,503.023 L357.449,500.336 L345.816,500.336 L345.816,503.211 L359.605,503.211 L359.605,501.805 Q359.605,499.273 358.633,497.383 Q357.66,495.492 355.871,494.449 Q354.082,493.406 351.629,493.406 Q349.176,493.406 347.367,494.48 Q345.559,495.555 344.566,497.516 Q343.574,499.477 343.574,502.141 L343.574,502.156 Q343.574,504.828 344.566,506.781 Q345.559,508.734 347.406,509.789 Q349.254,510.844 351.816,510.844 z" fill="#FFFFFF"/>
    <path d="M367.34,510.766 Q368.441,510.766 369.383,510.434 Q370.324,510.102 371.062,509.48 Q371.801,508.859 372.277,508.008 L372.371,508.008 L372.371,510.5 L376.934,510.5 L376.934,499.016 Q376.934,497.328 376.051,496.066 Q375.168,494.805 373.57,494.105 Q371.973,493.406 369.809,493.406 Q367.598,493.406 366,494.09 Q364.402,494.773 363.504,495.973 Q362.605,497.172 362.473,498.727 L362.457,498.914 L366.629,498.914 L366.66,498.766 Q366.832,497.953 367.586,497.426 Q368.34,496.898 369.613,496.898 Q370.957,496.898 371.664,497.543 Q372.371,498.188 372.371,499.305 L372.371,504.383 Q372.371,505.25 371.906,505.945 Q371.441,506.641 370.641,507.039 Q369.84,507.438 368.816,507.438 Q367.637,507.438 366.93,506.914 Q366.223,506.391 366.223,505.469 L366.223,505.445 Q366.223,504.555 366.91,504.016 Q367.598,503.477 368.918,503.398 L374.762,503.016 L374.762,500.18 L368.23,500.586 Q366.152,500.719 364.695,501.348 Q363.238,501.977 362.473,503.062 Q361.707,504.148 361.707,505.68 L361.707,505.703 Q361.707,507.18 362.418,508.324 Q363.129,509.469 364.398,510.117 Q365.668,510.766 367.34,510.766 z" fill="#FFFFFF"/>
    <path d="M380.418,510.5 L384.98,510.5 L384.98,487.953 L380.418,487.953 z M390.957,510.5 L396.215,510.5 L388.668,499.625 L385.785,503.102 z M384.426,505.57 L387.16,502.555 L388.176,502.555 L395.902,493.75 L390.73,493.75 L385.074,500.453 L384.426,500.453 z" fill="#FFFFFF"/>
    <path d="M404.73,510.844 Q406.52,510.844 407.859,510.375 Q409.199,509.906 410.129,509.125 Q411.059,508.344 411.602,507.41 Q412.145,506.477 412.34,505.555 L412.379,505.375 L408.191,505.375 L408.16,505.469 Q408.004,505.945 407.57,506.398 Q407.137,506.852 406.449,507.145 Q405.762,507.438 404.824,507.438 Q403.637,507.438 402.777,506.914 Q401.918,506.391 401.453,505.406 Q400.988,504.422 400.988,503.039 L400.988,501.266 Q400.988,499.836 401.453,498.84 Q401.918,497.844 402.738,497.328 Q403.559,496.812 404.621,496.812 Q405.684,496.812 406.488,497.312 Q407.293,497.812 407.746,498.805 Q408.199,499.797 408.199,501.266 L408.199,503.023 L410.363,500.336 L398.73,500.336 L398.73,503.211 L412.52,503.211 L412.52,501.805 Q412.52,499.273 411.547,497.383 Q410.574,495.492 408.785,494.449 Q406.996,493.406 404.543,493.406 Q402.09,493.406 400.281,494.48 Q398.473,495.555 397.48,497.516 Q396.488,499.477 396.488,502.141 L396.488,502.156 Q396.488,504.828 397.48,506.781 Q398.473,508.734 400.32,509.789 Q402.168,510.844 404.73,510.844 z" fill="#FFFFFF"/>
    <path d="M415.27,510.5 L419.832,510.5 L419.832,501.125 Q419.832,499.906 420.25,499.062 Q420.668,498.219 421.469,497.781 Q422.27,497.344 423.395,497.344 Q423.895,497.344 424.332,497.414 Q424.77,497.484 425.051,497.602 L425.051,493.586 Q424.793,493.508 424.453,493.457 Q424.113,493.406 423.73,493.406 Q422.27,493.406 421.281,494.266 Q420.293,495.125 419.926,496.672 L419.832,496.672 L419.832,493.75 L415.27,493.75 z" fill="#FFFFFF"/>
    <path d="M439.746,510.844 Q441.02,510.844 442.012,510.469 Q443.004,510.094 443.715,509.395 Q444.426,508.695 444.855,507.742 L444.949,507.742 L444.949,510.5 L449.512,510.5 L449.512,493.75 L444.949,493.75 L444.949,503.375 Q444.949,504.195 444.719,504.875 Q444.488,505.555 444.047,506.043 Q443.605,506.531 442.992,506.797 Q442.379,507.062 441.613,507.062 Q440.074,507.062 439.305,506.16 Q438.535,505.258 438.535,503.617 L438.535,493.75 L433.973,493.75 L433.973,504.562 Q433.973,506.516 434.648,507.926 Q435.324,509.336 436.617,510.09 Q437.91,510.844 439.746,510.844 z" fill="#FFFFFF"/>
    <path d="M452.887,515.969 L457.449,515.969 L457.449,507.648 L457.543,507.648 Q458.004,508.641 458.758,509.355 Q459.512,510.07 460.523,510.457 Q461.535,510.844 462.73,510.844 Q464.832,510.844 466.348,509.797 Q467.863,508.75 468.684,506.801 Q469.504,504.852 469.504,502.133 L469.504,502.117 Q469.504,499.391 468.68,497.438 Q467.855,495.484 466.324,494.445 Q464.793,493.406 462.668,493.406 Q461.48,493.406 460.488,493.801 Q459.496,494.195 458.754,494.926 Q458.012,495.656 457.551,496.68 L457.449,496.68 L457.449,493.75 L452.887,493.75 z M461.16,507.062 Q460.051,507.062 459.215,506.461 Q458.379,505.859 457.902,504.754 Q457.426,503.648 457.426,502.141 L457.426,502.125 Q457.426,500.602 457.898,499.496 Q458.371,498.391 459.215,497.789 Q460.059,497.188 461.16,497.188 Q462.293,497.188 463.125,497.777 Q463.957,498.367 464.41,499.473 Q464.863,500.578 464.863,502.117 L464.863,502.133 Q464.863,503.648 464.414,504.754 Q463.965,505.859 463.133,506.461 Q462.301,507.062 461.16,507.062 z" fill="#FFFFFF"/>
    <path d="M478.48,510.844 Q479.691,510.844 480.691,510.457 Q481.691,510.07 482.441,509.359 Q483.191,508.648 483.637,507.648 L483.73,507.648 L483.73,510.5 L488.293,510.5 L488.293,487.953 L483.73,487.953 L483.73,496.664 L483.637,496.664 Q483.184,495.648 482.426,494.918 Q481.668,494.188 480.668,493.797 Q479.668,493.406 478.473,493.406 Q476.371,493.406 474.844,494.445 Q473.316,495.484 472.488,497.434 Q471.66,499.383 471.66,502.109 L471.66,502.125 Q471.66,504.844 472.484,506.797 Q473.309,508.75 474.84,509.797 Q476.371,510.844 478.48,510.844 z M480.004,507.062 Q478.871,507.062 478.035,506.465 Q477.199,505.867 476.75,504.758 Q476.301,503.648 476.301,502.125 L476.301,502.109 Q476.301,500.578 476.754,499.477 Q477.207,498.375 478.039,497.781 Q478.871,497.188 480.004,497.188 Q481.113,497.188 481.949,497.789 Q482.785,498.391 483.262,499.496 Q483.738,500.602 483.738,502.117 L483.738,502.133 Q483.738,503.641 483.27,504.75 Q482.801,505.859 481.957,506.461 Q481.113,507.062 480.004,507.062 z" fill="#FFFFFF"/>
    <path d="M496.723,510.766 Q497.824,510.766 498.766,510.434 Q499.707,510.102 500.445,509.48 Q501.184,508.859 501.66,508.008 L501.754,508.008 L501.754,510.5 L506.316,510.5 L506.316,499.016 Q506.316,497.328 505.434,496.066 Q504.551,494.805 502.953,494.105 Q501.355,493.406 499.191,493.406 Q496.98,493.406 495.383,494.09 Q493.785,494.773 492.887,495.973 Q491.988,497.172 491.855,498.727 L491.84,498.914 L496.012,498.914 L496.043,498.766 Q496.215,497.953 496.969,497.426 Q497.723,496.898 498.996,496.898 Q500.34,496.898 501.047,497.543 Q501.754,498.188 501.754,499.305 L501.754,504.383 Q501.754,505.25 501.289,505.945 Q500.824,506.641 500.023,507.039 Q499.223,507.438 498.199,507.438 Q497.02,507.438 496.312,506.914 Q495.605,506.391 495.605,505.469 L495.605,505.445 Q495.605,504.555 496.293,504.016 Q496.98,503.477 498.301,503.398 L504.145,503.016 L504.145,500.18 L497.613,500.586 Q495.535,500.719 494.078,501.348 Q492.621,501.977 491.855,503.062 Q491.09,504.148 491.09,505.68 L491.09,505.703 Q491.09,507.18 491.801,508.324 Q492.512,509.469 493.781,510.117 Q495.051,510.766 496.723,510.766 z" fill="#FFFFFF"/>
    <path d="M516.309,510.844 Q517.02,510.844 517.574,510.789 Q518.129,510.734 518.512,510.672 L518.512,507.336 Q518.301,507.359 518.066,507.383 Q517.832,507.406 517.527,507.406 Q516.488,507.406 515.969,506.949 Q515.449,506.492 515.449,505.32 L515.449,497.188 L518.512,497.188 L518.512,493.75 L515.449,493.75 L515.449,489.664 L510.84,489.664 L510.84,493.75 L508.512,493.75 L508.512,497.188 L510.84,497.188 L510.84,505.82 Q510.84,508.508 512.18,509.676 Q513.52,510.844 516.309,510.844 z" fill="#FFFFFF"/>
    <path d="M528.816,510.844 Q530.605,510.844 531.945,510.375 Q533.285,509.906 534.215,509.125 Q535.145,508.344 535.688,507.41 Q536.23,506.477 536.426,505.555 L536.465,505.375 L532.277,505.375 L532.246,505.469 Q532.09,505.945 531.656,506.398 Q531.223,506.852 530.535,507.145 Q529.848,507.438 528.91,507.438 Q527.723,507.438 526.863,506.914 Q526.004,506.391 525.539,505.406 Q525.074,504.422 525.074,503.039 L525.074,501.266 Q525.074,499.836 525.539,498.84 Q526.004,497.844 526.824,497.328 Q527.645,496.812 528.707,496.812 Q529.77,496.812 530.574,497.312 Q531.379,497.812 531.832,498.805 Q532.285,499.797 532.285,501.266 L532.285,503.023 L534.449,500.336 L522.816,500.336 L522.816,503.211 L536.605,503.211 L536.605,501.805 Q536.605,499.273 535.633,497.383 Q534.66,495.492 532.871,494.449 Q531.082,493.406 528.629,493.406 Q526.176,493.406 524.367,494.48 Q522.559,495.555 521.566,497.516 Q520.574,499.477 520.574,502.141 L520.574,502.156 Q520.574,504.828 521.566,506.781 Q522.559,508.734 524.406,509.789 Q526.254,510.844 528.816,510.844 z" fill="#FFFFFF"/>
    <path d="M546.238,510.844 Q548.395,510.844 550.047,510.168 Q551.699,509.492 552.633,508.27 Q553.566,507.047 553.566,505.406 L553.566,505.391 Q553.566,503.547 552.418,502.457 Q551.27,501.367 548.637,500.812 L545.785,500.211 Q544.949,500.023 544.449,499.773 Q543.949,499.523 543.734,499.188 Q543.52,498.852 543.52,498.43 L543.52,498.414 Q543.52,497.867 543.832,497.469 Q544.145,497.07 544.723,496.852 Q545.301,496.633 546.082,496.633 Q547.355,496.633 548.082,497.234 Q548.809,497.836 548.918,498.734 L548.934,498.859 L553.137,498.859 L553.129,498.703 Q553.082,497.234 552.25,496.035 Q551.418,494.836 549.863,494.121 Q548.309,493.406 546.082,493.406 Q543.957,493.406 542.375,494.055 Q540.793,494.703 539.93,495.879 Q539.066,497.055 539.066,498.656 L539.066,498.672 Q539.066,499.922 539.613,500.883 Q540.16,501.844 541.25,502.492 Q542.34,503.141 543.957,503.484 L546.809,504.086 Q548.035,504.359 548.52,504.77 Q549.004,505.18 549.004,505.852 L549.004,505.867 Q549.004,506.406 548.672,506.801 Q548.34,507.195 547.727,507.406 Q547.113,507.617 546.246,507.617 Q544.879,507.617 544.117,507.066 Q543.355,506.516 543.137,505.531 L543.105,505.391 L538.652,505.391 L538.668,505.531 Q538.855,507.117 539.766,508.312 Q540.676,509.508 542.301,510.176 Q543.926,510.844 546.238,510.844 z" fill="#FFFFFF"/>
    <path d="M570.613,510.844 Q572.855,510.844 574.516,509.996 Q576.176,509.148 577.129,507.695 Q578.082,506.242 578.191,504.414 L578.199,504.312 L573.949,504.312 L573.926,504.453 Q573.699,505.727 572.863,506.496 Q572.027,507.266 570.652,507.266 Q569.527,507.266 568.703,506.664 Q567.879,506.062 567.434,504.914 Q566.988,503.766 566.988,502.133 L566.988,502.117 Q566.988,500.516 567.434,499.367 Q567.879,498.219 568.699,497.602 Q569.52,496.984 570.637,496.984 Q572.051,496.984 572.883,497.793 Q573.715,498.602 573.918,499.797 L573.941,499.938 L578.184,499.938 L578.176,499.828 Q578.09,498.016 577.145,496.562 Q576.199,495.109 574.523,494.258 Q572.848,493.406 570.574,493.406 Q568.066,493.406 566.219,494.461 Q564.371,495.516 563.359,497.465 Q562.348,499.414 562.348,502.094 L562.348,502.109 Q562.348,504.805 563.352,506.766 Q564.355,508.727 566.211,509.785 Q568.066,510.844 570.613,510.844 z" fill="#FFFFFF"/>
    <path d="M588.48,510.844 Q591.02,510.844 592.879,509.805 Q594.738,508.766 595.758,506.816 Q596.777,504.867 596.777,502.133 L596.777,502.102 Q596.777,499.383 595.746,497.438 Q594.715,495.492 592.852,494.449 Q590.988,493.406 588.473,493.406 Q585.973,493.406 584.109,494.453 Q582.246,495.5 581.215,497.449 Q580.184,499.398 580.184,502.102 L580.184,502.133 Q580.184,504.852 581.199,506.805 Q582.215,508.758 584.078,509.801 Q585.941,510.844 588.48,510.844 z M588.496,507.266 Q587.371,507.266 586.547,506.664 Q585.723,506.062 585.273,504.914 Q584.824,503.766 584.824,502.133 L584.824,502.102 Q584.824,500.477 585.277,499.336 Q585.73,498.195 586.555,497.59 Q587.379,496.984 588.473,496.984 Q589.582,496.984 590.406,497.586 Q591.23,498.188 591.684,499.332 Q592.137,500.477 592.137,502.102 L592.137,502.133 Q592.137,503.766 591.691,504.914 Q591.246,506.062 590.43,506.664 Q589.613,507.266 588.496,507.266 z" fill="#FFFFFF"/>
    <path d="M599.535,510.5 L604.098,510.5 L604.098,500.391 Q604.098,499.445 604.465,498.727 Q604.832,498.008 605.484,497.598 Q606.137,497.188 606.996,497.188 Q607.848,497.188 608.449,497.527 Q609.051,497.867 609.375,498.508 Q609.699,499.148 609.699,500.055 L609.699,510.5 L614.098,510.5 L614.098,500.32 Q614.098,499.383 614.453,498.68 Q614.809,497.977 615.457,497.582 Q616.105,497.188 616.965,497.188 Q617.855,497.188 618.461,497.535 Q619.066,497.883 619.383,498.551 Q619.699,499.219 619.699,500.195 L619.699,510.5 L624.262,510.5 L624.262,499.047 Q624.262,497.352 623.574,496.086 Q622.887,494.82 621.656,494.113 Q620.426,493.406 618.777,493.406 Q617.551,493.406 616.508,493.832 Q615.465,494.258 614.711,495.031 Q613.957,495.805 613.582,496.867 L613.488,496.867 Q613.215,495.758 612.57,494.988 Q611.926,494.219 610.988,493.812 Q610.051,493.406 608.871,493.406 Q607.191,493.406 605.945,494.27 Q604.699,495.133 604.191,496.57 L604.098,496.57 L604.098,493.75 L599.535,493.75 z" fill="#FFFFFF"/>
    <path d="M627.652,510.5 L632.215,510.5 L632.215,493.75 L627.652,493.75 z M629.934,491.602 Q630.965,491.602 631.668,490.898 Q632.371,490.195 632.371,489.227 Q632.371,488.242 631.668,487.547 Q630.965,486.852 629.934,486.852 Q628.91,486.852 628.203,487.547 Q627.496,488.242 627.496,489.227 Q627.496,490.195 628.203,490.898 Q628.91,491.602 629.934,491.602 z" fill="#FFFFFF"/>
    <path d="M635.676,510.5 L640.238,510.5 L640.238,500.875 Q640.238,499.773 640.648,498.945 Q641.059,498.117 641.809,497.652 Q642.559,497.188 643.574,497.188 Q645.113,497.188 645.883,498.09 Q646.652,498.992 646.652,500.633 L646.652,510.5 L651.215,510.5 L651.215,499.688 Q651.215,496.742 649.707,495.074 Q648.199,493.406 645.441,493.406 Q643.543,493.406 642.262,494.234 Q640.98,495.062 640.332,496.508 L640.238,496.508 L640.238,493.75 L635.676,493.75 z" fill="#FFFFFF"/>
    <path d="M662.332,516.312 Q664.848,516.312 666.684,515.52 Q668.52,514.727 669.516,513.312 Q670.512,511.898 670.512,510.031 L670.512,493.75 L665.949,493.75 L665.949,496.617 L665.848,496.617 Q665.395,495.633 664.652,494.914 Q663.91,494.195 662.926,493.801 Q661.941,493.406 660.754,493.406 Q658.637,493.406 657.102,494.426 Q655.566,495.445 654.73,497.348 Q653.895,499.25 653.895,501.93 L653.895,501.945 Q653.895,504.539 654.715,506.402 Q655.535,508.266 657.062,509.266 Q658.59,510.266 660.684,510.266 Q661.895,510.266 662.902,509.914 Q663.91,509.562 664.664,508.926 Q665.418,508.289 665.855,507.406 L665.949,507.406 L665.949,509.977 Q665.949,511.375 665.027,512.219 Q664.105,513.062 662.34,513.062 Q660.91,513.062 660.02,512.598 Q659.129,512.133 658.855,511.516 L658.809,511.406 L654.363,511.406 L654.387,511.547 Q654.605,512.891 655.613,513.973 Q656.621,515.055 658.328,515.684 Q660.035,516.312 662.332,516.312 z M662.262,506.922 Q661.129,506.922 660.285,506.332 Q659.441,505.742 658.988,504.648 Q658.535,503.555 658.535,502.047 L658.535,502.031 Q658.535,500.523 658.992,499.441 Q659.449,498.359 660.289,497.773 Q661.129,497.188 662.262,497.188 Q663.371,497.188 664.203,497.777 Q665.035,498.367 665.5,499.453 Q665.965,500.539 665.965,502.039 L665.965,502.055 Q665.965,503.547 665.504,504.641 Q665.043,505.734 664.211,506.328 Q663.379,506.922 662.262,506.922 z" fill="#FFFFFF"/>
    <path d="M687.512,510.844 Q689.668,510.844 691.32,510.168 Q692.973,509.492 693.906,508.27 Q694.84,507.047 694.84,505.406 L694.84,505.391 Q694.84,503.547 693.691,502.457 Q692.543,501.367 689.91,500.812 L687.059,500.211 Q686.223,500.023 685.723,499.773 Q685.223,499.523 685.008,499.188 Q684.793,498.852 684.793,498.43 L684.793,498.414 Q684.793,497.867 685.105,497.469 Q685.418,497.07 685.996,496.852 Q686.574,496.633 687.355,496.633 Q688.629,496.633 689.355,497.234 Q690.082,497.836 690.191,498.734 L690.207,498.859 L694.41,498.859 L694.402,498.703 Q694.355,497.234 693.523,496.035 Q692.691,494.836 691.137,494.121 Q689.582,493.406 687.355,493.406 Q685.23,493.406 683.648,494.055 Q682.066,494.703 681.203,495.879 Q680.34,497.055 680.34,498.656 L680.34,498.672 Q680.34,499.922 680.887,500.883 Q681.434,501.844 682.523,502.492 Q683.613,503.141 685.23,503.484 L688.082,504.086 Q689.309,504.359 689.793,504.77 Q690.277,505.18 690.277,505.852 L690.277,505.867 Q690.277,506.406 689.945,506.801 Q689.613,507.195 689,507.406 Q688.387,507.617 687.52,507.617 Q686.152,507.617 685.391,507.066 Q684.629,506.516 684.41,505.531 L684.379,505.391 L679.926,505.391 L679.941,505.531 Q680.129,507.117 681.039,508.312 Q681.949,509.508 683.574,510.176 Q685.199,510.844 687.512,510.844 z" fill="#FFFFFF"/>
    <path d="M705.184,510.844 Q707.723,510.844 709.582,509.805 Q711.441,508.766 712.461,506.816 Q713.48,504.867 713.48,502.133 L713.48,502.102 Q713.48,499.383 712.449,497.438 Q711.418,495.492 709.555,494.449 Q707.691,493.406 705.176,493.406 Q702.676,493.406 700.812,494.453 Q698.949,495.5 697.918,497.449 Q696.887,499.398 696.887,502.102 L696.887,502.133 Q696.887,504.852 697.902,506.805 Q698.918,508.758 700.781,509.801 Q702.645,510.844 705.184,510.844 z M705.199,507.266 Q704.074,507.266 703.25,506.664 Q702.426,506.062 701.977,504.914 Q701.527,503.766 701.527,502.133 L701.527,502.102 Q701.527,500.477 701.98,499.336 Q702.434,498.195 703.258,497.59 Q704.082,496.984 705.176,496.984 Q706.285,496.984 707.109,497.586 Q707.934,498.188 708.387,499.332 Q708.84,500.477 708.84,502.102 L708.84,502.133 Q708.84,503.766 708.395,504.914 Q707.949,506.062 707.133,506.664 Q706.316,507.266 705.199,507.266 z" fill="#FFFFFF"/>
    <path d="M723.918,510.844 Q726.457,510.844 728.316,509.805 Q730.176,508.766 731.195,506.816 Q732.215,504.867 732.215,502.133 L732.215,502.102 Q732.215,499.383 731.184,497.438 Q730.152,495.492 728.289,494.449 Q726.426,493.406 723.91,493.406 Q721.41,493.406 719.547,494.453 Q717.684,495.5 716.652,497.449 Q715.621,499.398 715.621,502.102 L715.621,502.133 Q715.621,504.852 716.637,506.805 Q717.652,508.758 719.516,509.801 Q721.379,510.844 723.918,510.844 z M723.934,507.266 Q722.809,507.266 721.984,506.664 Q721.16,506.062 720.711,504.914 Q720.262,503.766 720.262,502.133 L720.262,502.102 Q720.262,500.477 720.715,499.336 Q721.168,498.195 721.992,497.59 Q722.816,496.984 723.91,496.984 Q725.02,496.984 725.844,497.586 Q726.668,498.188 727.121,499.332 Q727.574,500.477 727.574,502.102 L727.574,502.133 Q727.574,503.766 727.129,504.914 Q726.684,506.062 725.867,506.664 Q725.051,507.266 723.934,507.266 z" fill="#FFFFFF"/>
    <path d="M734.973,510.5 L739.535,510.5 L739.535,500.875 Q739.535,499.773 739.945,498.945 Q740.355,498.117 741.105,497.652 Q741.855,497.188 742.871,497.188 Q744.41,497.188 745.18,498.09 Q745.949,498.992 745.949,500.633 L745.949,510.5 L750.512,510.5 L750.512,499.688 Q750.512,496.742 749.004,495.074 Q747.496,493.406 744.738,493.406 Q742.84,493.406 741.559,494.234 Q740.277,495.062 739.629,496.508 L739.535,496.508 L739.535,493.75 L734.973,493.75 z" fill="#FFFFFF"/>
    <path d="M756.176,510.766 Q757.238,510.766 757.973,510.031 Q758.707,509.297 758.707,508.234 Q758.707,507.172 757.973,506.438 Q757.238,505.703 756.176,505.703 Q755.113,505.703 754.379,506.438 Q753.645,507.172 753.645,508.234 Q753.645,509.297 754.379,510.031 Q755.113,510.766 756.176,510.766 z" fill="#FFFFFF"/>
    <path d="M764.285,510.766 Q765.348,510.766 766.082,510.031 Q766.816,509.297 766.816,508.234 Q766.816,507.172 766.082,506.438 Q765.348,505.703 764.285,505.703 Q763.223,505.703 762.488,506.438 Q761.754,507.172 761.754,508.234 Q761.754,509.297 762.488,510.031 Q763.223,510.766 764.285,510.766 z" fill="#FFFFFF"/>
    <path d="M772.395,510.766 Q773.457,510.766 774.191,510.031 Q774.926,509.297 774.926,508.234 Q774.926,507.172 774.191,506.438 Q773.457,505.703 772.395,505.703 Q771.332,505.703 770.598,506.438 Q769.863,507.172 769.863,508.234 Q769.863,509.297 770.598,510.031 Q771.332,510.766 772.395,510.766 z" fill="#FFFFFF"/>
  </g>
</svg>
